<?xml version="1.0" encoding="UTF-8"?>
<!--Generator: Apple Native CoreSVG 175-->
<!DOCTYPE svg
PUBLIC "-//W3C//DTD SVG 1.1//EN"
       "http://www.w3.org/Graphics/SVG/1.1/DTD/svg11.dtd">
<svg version="1.1" xmlns="http://www.w3.org/2000/svg" xmlns:xlink="http://www.w3.org/1999/xlink" width="3300" height="2200">
 <!--glyph: "uni100C19.medium", point size: 100.0, font version: "17.3d3e1", template writer version: "65.1"-->
 <style>.hierarchical-0:secondary {fill:#4D4D4D}
.hierarchical-1:primary {fill:#212121;-sfsymbols-clear-behind:true}

.SFSymbolsPreview212121 {fill:#212121;opacity:1.0}
.SFSymbolsPreview4D4D4D {fill:#4D4D4D;opacity:1.0}
</style>
 <g id="Notes">
  <rect height="2200" id="artboard" style="fill:white;opacity:1" width="3300" x="0" y="0"/>
  <line style="fill:none;stroke:black;opacity:1;stroke-width:0.5;" x1="263" x2="3036" y1="292" y2="292"/>
  <text style="stroke:none;fill:black;font-family:sans-serif;font-size:13;font-weight:bold;" transform="matrix(1 0 0 1 263 322)">Weight/Scale Variations</text>
  <text style="stroke:none;fill:black;font-family:sans-serif;font-size:13;text-anchor:middle;" transform="matrix(1 0 0 1 559.711 322)">Ultralight</text>
  <text style="stroke:none;fill:black;font-family:sans-serif;font-size:13;text-anchor:middle;" transform="matrix(1 0 0 1 856.422 322)">Thin</text>
  <text style="stroke:none;fill:black;font-family:sans-serif;font-size:13;text-anchor:middle;" transform="matrix(1 0 0 1 1153.13 322)">Light</text>
  <text style="stroke:none;fill:black;font-family:sans-serif;font-size:13;text-anchor:middle;" transform="matrix(1 0 0 1 1449.84 322)">Regular</text>
  <text style="stroke:none;fill:black;font-family:sans-serif;font-size:13;text-anchor:middle;" transform="matrix(1 0 0 1 1746.56 322)">Medium</text>
  <text style="stroke:none;fill:black;font-family:sans-serif;font-size:13;text-anchor:middle;" transform="matrix(1 0 0 1 2043.27 322)">Semibold</text>
  <text style="stroke:none;fill:black;font-family:sans-serif;font-size:13;text-anchor:middle;" transform="matrix(1 0 0 1 2339.98 322)">Bold</text>
  <text style="stroke:none;fill:black;font-family:sans-serif;font-size:13;text-anchor:middle;" transform="matrix(1 0 0 1 2636.69 322)">Heavy</text>
  <text style="stroke:none;fill:black;font-family:sans-serif;font-size:13;text-anchor:middle;" transform="matrix(1 0 0 1 2933.4 322)">Black</text>
  <line style="fill:none;stroke:black;opacity:1;stroke-width:0.5;" x1="263" x2="3036" y1="1903" y2="1903"/>
  <g transform="matrix(1 0 0 1 263 1933)">
   <path d="M9.24805 0.830078Q10.8691 0.830078 12.2949 0.214844Q13.7207-0.400391 14.8096-1.49414Q15.8984-2.58789 16.5186-4.01367Q17.1387-5.43945 17.1387-7.05078Q17.1387-8.66211 16.5186-10.0879Q15.8984-11.5137 14.8047-12.6074Q13.7109-13.7012 12.2852-14.3164Q10.8594-14.9316 9.23828-14.9316Q7.62695-14.9316 6.20117-14.3164Q4.77539-13.7012 3.69141-12.6074Q2.60742-11.5137 1.9873-10.0879Q1.36719-8.66211 1.36719-7.05078Q1.36719-5.43945 1.9873-4.01367Q2.60742-2.58789 3.69629-1.49414Q4.78516-0.400391 6.21094 0.214844Q7.63672 0.830078 9.24805 0.830078ZM9.24805-0.654297Q7.91992-0.654297 6.7627-1.14746Q5.60547-1.64062 4.73145-2.51953Q3.85742-3.39844 3.36426-4.56055Q2.87109-5.72266 2.87109-7.05078Q2.87109-8.37891 3.35938-9.54102Q3.84766-10.7031 4.72168-11.582Q5.5957-12.4609 6.75293-12.9541Q7.91016-13.4473 9.23828-13.4473Q10.5762-13.4473 11.7334-12.9541Q12.8906-12.4609 13.7695-11.582Q14.6484-10.7031 15.1465-9.54102Q15.6445-8.37891 15.6445-7.05078Q15.6445-5.72266 15.1514-4.56055Q14.6582-3.39844 13.7842-2.51953Q12.9102-1.64062 11.748-1.14746Q10.5859-0.654297 9.24805-0.654297ZM5.6543-7.05078Q5.6543-6.72852 5.85938-6.52832Q6.06445-6.32812 6.40625-6.32812L8.51562-6.32812L8.51562-4.20898Q8.51562-3.88672 8.71094-3.67676Q8.90625-3.4668 9.23828-3.4668Q9.56055-3.4668 9.77051-3.67676Q9.98047-3.88672 9.98047-4.20898L9.98047-6.32812L12.0898-6.32812Q12.4219-6.32812 12.627-6.52832Q12.832-6.72852 12.832-7.05078Q12.832-7.38281 12.627-7.58789Q12.4219-7.79297 12.0898-7.79297L9.98047-7.79297L9.98047-9.90234Q9.98047-10.2344 9.77051-10.4443Q9.56055-10.6543 9.23828-10.6543Q8.90625-10.6543 8.71094-10.4443Q8.51562-10.2344 8.51562-9.90234L8.51562-7.79297L6.40625-7.79297Q6.06445-7.79297 5.85938-7.58789Q5.6543-7.38281 5.6543-7.05078Z"/>
  </g>
  <g transform="matrix(1 0 0 1 281.867 1933)">
   <path d="M11.709 2.91016Q13.75 2.91016 15.5518 2.12891Q17.3535 1.34766 18.7305-0.0292969Q20.1074-1.40625 20.8887-3.20801Q21.6699-5.00977 21.6699-7.05078Q21.6699-9.0918 20.8887-10.8936Q20.1074-12.6953 18.7305-14.0723Q17.3535-15.4492 15.5469-16.2305Q13.7402-17.0117 11.6992-17.0117Q9.6582-17.0117 7.85645-16.2305Q6.05469-15.4492 4.68262-14.0723Q3.31055-12.6953 2.5293-10.8936Q1.74805-9.0918 1.74805-7.05078Q1.74805-5.00977 2.5293-3.20801Q3.31055-1.40625 4.6875-0.0292969Q6.06445 1.34766 7.86621 2.12891Q9.66797 2.91016 11.709 2.91016ZM11.709 1.25Q9.98047 1.25 8.47656 0.605469Q6.97266-0.0390625 5.83496-1.17676Q4.69727-2.31445 4.05762-3.81836Q3.41797-5.32227 3.41797-7.05078Q3.41797-8.7793 4.05762-10.2832Q4.69727-11.7871 5.83008-12.9297Q6.96289-14.0723 8.4668-14.7119Q9.9707-15.3516 11.6992-15.3516Q13.4277-15.3516 14.9316-14.7119Q16.4355-14.0723 17.5781-12.9297Q18.7207-11.7871 19.3652-10.2832Q20.0098-8.7793 20.0098-7.05078Q20.0098-5.32227 19.3701-3.81836Q18.7305-2.31445 17.5928-1.17676Q16.4551-0.0390625 14.9463 0.605469Q13.4375 1.25 11.709 1.25ZM7.17773-7.05078Q7.17773-6.69922 7.41211-6.47461Q7.64648-6.25 8.01758-6.25L10.8887-6.25L10.8887-3.36914Q10.8887-2.99805 11.1133-2.76855Q11.3379-2.53906 11.6895-2.53906Q12.0605-2.53906 12.29-2.76855Q12.5195-2.99805 12.5195-3.36914L12.5195-6.25L15.4004-6.25Q15.7715-6.25 16.001-6.47461Q16.2305-6.69922 16.2305-7.05078Q16.2305-7.42188 16.001-7.65137Q15.7715-7.88086 15.4004-7.88086L12.5195-7.88086L12.5195-10.752Q12.5195-11.1328 12.29-11.3623Q12.0605-11.5918 11.6895-11.5918Q11.3379-11.5918 11.1133-11.3574Q10.8887-11.123 10.8887-10.752L10.8887-7.88086L8.01758-7.88086Q7.63672-7.88086 7.40723-7.65137Q7.17773-7.42188 7.17773-7.05078Z"/>
  </g>
  <g transform="matrix(1 0 0 1 305.646 1933)">
   <path d="M14.9707 5.66406Q17.0605 5.66406 18.96 5.01465Q20.8594 4.36523 22.4512 3.19336Q24.043 2.02148 25.2197 0.429688Q26.3965-1.16211 27.0459-3.06641Q27.6953-4.9707 27.6953-7.05078Q27.6953-9.14062 27.0459-11.04Q26.3965-12.9395 25.2197-14.5312Q24.043-16.123 22.4512-17.2998Q20.8594-18.4766 18.9551-19.126Q17.0508-19.7754 14.9609-19.7754Q12.8711-19.7754 10.9717-19.126Q9.07227-18.4766 7.48535-17.2998Q5.89844-16.123 4.72168-14.5312Q3.54492-12.9395 2.90039-11.04Q2.25586-9.14062 2.25586-7.05078Q2.25586-4.9707 2.90527-3.06641Q3.55469-1.16211 4.72656 0.429688Q5.89844 2.02148 7.49023 3.19336Q9.08203 4.36523 10.9814 5.01465Q12.8809 5.66406 14.9707 5.66406ZM14.9707 3.84766Q13.1641 3.84766 11.5283 3.2959Q9.89258 2.74414 8.53516 1.74805Q7.17773 0.751953 6.17676-0.610352Q5.17578-1.97266 4.62891-3.6084Q4.08203-5.24414 4.08203-7.05078Q4.08203-8.86719 4.62891-10.5029Q5.17578-12.1387 6.17188-13.501Q7.16797-14.8633 8.52539-15.8594Q9.88281-16.8555 11.5186-17.4023Q13.1543-17.9492 14.9609-17.9492Q16.7773-17.9492 18.4131-17.4023Q20.0488-16.8555 21.4111-15.8594Q22.7734-14.8633 23.7695-13.501Q24.7656-12.1387 25.3174-10.5029Q25.8691-8.86719 25.8691-7.05078Q25.8789-5.24414 25.332-3.6084Q24.7852-1.97266 23.7842-0.610352Q22.7832 0.751953 21.4209 1.74805Q20.0586 2.74414 18.4229 3.2959Q16.7871 3.84766 14.9707 3.84766ZM9.19922-7.05078Q9.19922-6.66992 9.45801-6.4209Q9.7168-6.17188 10.1172-6.17188L14.0625-6.17188L14.0625-2.2168Q14.0625-1.81641 14.3115-1.55762Q14.5605-1.29883 14.9512-1.29883Q15.3516-1.29883 15.6104-1.55273Q15.8691-1.80664 15.8691-2.2168L15.8691-6.17188L19.8242-6.17188Q20.2246-6.17188 20.4785-6.4209Q20.7324-6.66992 20.7324-7.05078Q20.7324-7.46094 20.4785-7.71484Q20.2246-7.96875 19.8242-7.96875L15.8691-7.96875L15.8691-11.9141Q15.8691-12.3242 15.6104-12.583Q15.3516-12.8418 14.9512-12.8418Q14.5605-12.8418 14.3115-12.583Q14.0625-12.3242 14.0625-11.9141L14.0625-7.96875L10.1172-7.96875Q9.70703-7.96875 9.45312-7.71484Q9.19922-7.46094 9.19922-7.05078Z"/>
  </g>
  <text style="stroke:none;fill:black;font-family:sans-serif;font-size:13;font-weight:bold;" transform="matrix(1 0 0 1 263 1953)">Design Variations</text>
  <text style="stroke:none;fill:black;font-family:sans-serif;font-size:13;" transform="matrix(1 0 0 1 263 1971)">Symbols are supported in up to nine weights and three scales.</text>
  <text style="stroke:none;fill:black;font-family:sans-serif;font-size:13;" transform="matrix(1 0 0 1 263 1989)">For optimal layout with text and other symbols, vertically align</text>
  <text style="stroke:none;fill:black;font-family:sans-serif;font-size:13;" transform="matrix(1 0 0 1 263 2007)">symbols with the adjacent text.</text>
  <line style="fill:none;stroke:#00AEEF;stroke-width:0.5;opacity:1.0;" x1="776" x2="776" y1="1919" y2="1933"/>
  <g transform="matrix(1 0 0 1 776 1933)">
   <path d="M3.31055 0.15625Q3.70117 0.15625 3.91602-0.00976562Q4.13086-0.175781 4.26758-0.585938L5.52734-4.0332L11.2891-4.0332L12.5488-0.585938Q12.6855-0.175781 12.9004-0.00976562Q13.1152 0.15625 13.4961 0.15625Q13.8867 0.15625 14.1162-0.0585938Q14.3457-0.273438 14.3457-0.644531Q14.3457-0.869141 14.2383-1.17188L9.6582-13.3691Q9.48242-13.8184 9.17969-14.043Q8.87695-14.2676 8.4082-14.2676Q7.5-14.2676 7.17773-13.3789L2.59766-1.16211Q2.49023-0.859375 2.49023-0.634766Q2.49023-0.263672 2.70996-0.0537109Q2.92969 0.15625 3.31055 0.15625ZM6.00586-5.51758L8.37891-12.0898L8.42773-12.0898L10.8008-5.51758Z"/>
  </g>
  <line style="fill:none;stroke:#00AEEF;stroke-width:0.5;opacity:1.0;" x1="793.197" x2="793.197" y1="1919" y2="1933"/>
  <text style="stroke:none;fill:black;font-family:sans-serif;font-size:13;font-weight:bold;" transform="matrix(1 0 0 1 776 1953)">Margins</text>
  <text style="stroke:none;fill:black;font-family:sans-serif;font-size:13;" transform="matrix(1 0 0 1 776 1971)">Leading and trailing margins on the left and right side of each symbol</text>
  <text style="stroke:none;fill:black;font-family:sans-serif;font-size:13;" transform="matrix(1 0 0 1 776 1989)">can be adjusted by modifying the x-location of the margin guidelines.</text>
  <text style="stroke:none;fill:black;font-family:sans-serif;font-size:13;" transform="matrix(1 0 0 1 776 2007)">Modifications are automatically applied proportionally to all</text>
  <text style="stroke:none;fill:black;font-family:sans-serif;font-size:13;" transform="matrix(1 0 0 1 776 2025)">scales and weights.</text>
  <g transform="matrix(1 0 0 1 1289 1933)">
   <path d="M2.8418 1.86523L4.54102 3.57422Q5.18555 4.22852 5.90332 4.17969Q6.62109 4.13086 7.31445 3.35938L18.0078-8.42773L17.041-9.4043L6.42578 2.27539Q6.16211 2.57812 5.89355 2.61719Q5.625 2.65625 5.27344 2.30469L4.10156 1.14258Q3.75 0.791016 3.79395 0.522461Q3.83789 0.253906 4.14062-0.0195312L15.6152-10.8203L14.6387-11.7871L3.04688-0.898438Q2.30469-0.214844 2.25098 0.498047Q2.19727 1.21094 2.8418 1.86523ZM9.25781-16.3281Q8.94531-16.0254 8.90625-15.6348Q8.86719-15.2441 9.04297-14.9512Q9.21875-14.6777 9.55566-14.541Q9.89258-14.4043 10.3809-14.5215Q11.4746-14.7754 12.5977-14.7314Q13.7207-14.6875 14.7949-13.9844L14.209-12.5293Q13.9551-11.9043 14.0674-11.4404Q14.1797-10.9766 14.5801-10.5664L16.875-8.25195Q17.2363-7.88086 17.5781-7.82227Q17.9199-7.76367 18.3398-7.8418L19.4043-8.03711L20.0684-7.36328L20.0293-6.80664Q20-6.43555 20.1221-6.12305Q20.2441-5.81055 20.6055-5.44922L21.3672-4.70703Q21.7285-4.3457 22.1533-4.33105Q22.5781-4.31641 22.9297-4.66797L25.8398-7.58789Q26.1914-7.93945 26.1816-8.35449Q26.1719-8.76953 25.8105-9.13086L25.0391-9.89258Q24.6875-10.2539 24.3799-10.3857Q24.0723-10.5176 23.7109-10.4883L23.1348-10.4395L22.4902-11.0742L22.7344-12.1973Q22.832-12.6172 22.6953-12.9834Q22.5586-13.3496 22.1191-13.7891L19.9219-15.9766Q18.6719-17.2168 17.2607-17.8369Q15.8496-18.457 14.4189-18.4814Q12.9883-18.5059 11.665-17.959Q10.3418-17.4121 9.25781-16.3281ZM10.752-15.957Q11.6602-16.6211 12.7002-16.9043Q13.7402-17.1875 14.8047-17.085Q15.8691-16.9824 16.8701-16.5137Q17.8711-16.0449 18.7012-15.2051L21.1328-12.793Q21.3086-12.6172 21.3525-12.4512Q21.3965-12.2852 21.3379-12.0312L21.0156-10.5469L22.5195-9.0625L23.5059-9.12109Q23.6914-9.13086 23.7891-9.09668Q23.8867-9.0625 24.0332-8.91602L24.6094-8.33984L22.168-5.89844L21.5918-6.47461Q21.4453-6.62109 21.4062-6.71875Q21.3672-6.81641 21.377-7.01172L21.4453-7.98828L19.9512-9.47266L18.4277-9.21875Q18.1836-9.16992 18.042-9.2041Q17.9004-9.23828 17.7148-9.41406L15.7129-11.416Q15.5176-11.5918 15.4932-11.7529Q15.4688-11.9141 15.5859-12.1875L16.4648-14.2773Q15.293-15.3711 13.8281-15.791Q12.3633-16.2109 10.8398-15.7617Q10.7227-15.7324 10.6885-15.8057Q10.6543-15.8789 10.752-15.957Z"/>
  </g>
  <text style="stroke:none;fill:black;font-family:sans-serif;font-size:13;font-weight:bold;" transform="matrix(1 0 0 1 1289 1953)">Exporting</text>
  <text style="stroke:none;fill:black;font-family:sans-serif;font-size:13;" transform="matrix(1 0 0 1 1289 1971)">Symbols should be outlined when exporting to ensure the</text>
  <text style="stroke:none;fill:black;font-family:sans-serif;font-size:13;" transform="matrix(1 0 0 1 1289 1989)">design is preserved when submitting to Xcode.</text>
  <text id="template-version" style="stroke:none;fill:black;font-family:sans-serif;font-size:13;text-anchor:end;" transform="matrix(1 0 0 1 3036 1933)">Template v.3.0</text>
  <text style="stroke:none;fill:black;font-family:sans-serif;font-size:13;text-anchor:end;" transform="matrix(1 0 0 1 3036 1951)">Requires Xcode 13 or greater</text>
  <text id="descriptive-name" style="stroke:none;fill:black;font-family:sans-serif;font-size:13;text-anchor:end;" transform="matrix(1 0 0 1 3036 1969)">Generated from sparkles.square.filled.on.square</text>
  <text style="stroke:none;fill:black;font-family:sans-serif;font-size:13;text-anchor:end;" transform="matrix(1 0 0 1 3036 1987)">Typeset at 100 points</text>
  <text style="stroke:none;fill:black;font-family:sans-serif;font-size:13;" transform="matrix(1 0 0 1 263 726)">Small</text>
  <text style="stroke:none;fill:black;font-family:sans-serif;font-size:13;" transform="matrix(1 0 0 1 263 1156)">Medium</text>
  <text style="stroke:none;fill:black;font-family:sans-serif;font-size:13;" transform="matrix(1 0 0 1 263 1586)">Large</text>
 </g>
 <g id="Guides">
  <g id="H-reference" style="fill:#27AAE1;stroke:none;" transform="matrix(1 0 0 1 339 696)">
   <path d="M0.993347 0L3.6377 0L29.3282-67.1326L30.0301-67.1326L30.0301-70.459L28.1227-70.459ZM11.6882-24.4797L46.9818-24.4797L46.2311-26.7288L12.4382-26.7288ZM55.1193 0L57.7637 0L30.6381-70.459L29.4327-70.459L29.4327-67.1326Z"/>
  </g>
  <line id="Baseline-S" style="fill:none;stroke:#27AAE1;opacity:1;stroke-width:0.5;" x1="263" x2="3036" y1="696" y2="696"/>
  <line id="Capline-S" style="fill:none;stroke:#27AAE1;opacity:1;stroke-width:0.5;" x1="263" x2="3036" y1="625.541" y2="625.541"/>
  <g id="H-reference" style="fill:#27AAE1;stroke:none;" transform="matrix(1 0 0 1 339 1126)">
   <path d="M0.993347 0L3.6377 0L29.3282-67.1326L30.0301-67.1326L30.0301-70.459L28.1227-70.459ZM11.6882-24.4797L46.9818-24.4797L46.2311-26.7288L12.4382-26.7288ZM55.1193 0L57.7637 0L30.6381-70.459L29.4327-70.459L29.4327-67.1326Z"/>
  </g>
  <line id="Baseline-M" style="fill:none;stroke:#27AAE1;opacity:1;stroke-width:0.5;" x1="263" x2="3036" y1="1126" y2="1126"/>
  <line id="Capline-M" style="fill:none;stroke:#27AAE1;opacity:1;stroke-width:0.5;" x1="263" x2="3036" y1="1055.54" y2="1055.54"/>
  <g id="H-reference" style="fill:#27AAE1;stroke:none;" transform="matrix(1 0 0 1 339 1556)">
   <path d="M0.993347 0L3.6377 0L29.3282-67.1326L30.0301-67.1326L30.0301-70.459L28.1227-70.459ZM11.6882-24.4797L46.9818-24.4797L46.2311-26.7288L12.4382-26.7288ZM55.1193 0L57.7637 0L30.6381-70.459L29.4327-70.459L29.4327-67.1326Z"/>
  </g>
  <line id="Baseline-L" style="fill:none;stroke:#27AAE1;opacity:1;stroke-width:0.5;" x1="263" x2="3036" y1="1556" y2="1556"/>
  <line id="Capline-L" style="fill:none;stroke:#27AAE1;opacity:1;stroke-width:0.5;" x1="263" x2="3036" y1="1485.54" y2="1485.54"/>
  <line id="left-margin-Ultralight-S" style="fill:none;stroke:#00AEEF;stroke-width:0.5;opacity:1.0;" x1="511.434" x2="511.434" y1="600.785" y2="720.121"/>
  <line id="right-margin-Ultralight-S" style="fill:none;stroke:#00AEEF;stroke-width:0.5;opacity:1.0;" x1="607.988" x2="607.988" y1="600.785" y2="720.121"/>
  <line id="left-margin-Regular-S" style="fill:none;stroke:#00AEEF;stroke-width:0.5;opacity:1.0;" x1="1399.16" x2="1399.16" y1="600.785" y2="720.121"/>
  <line id="right-margin-Regular-S" style="fill:none;stroke:#00AEEF;stroke-width:0.5;opacity:1.0;" x1="1500.53" x2="1500.53" y1="600.785" y2="720.121"/>
  <line id="left-margin-Black-S" style="fill:none;stroke:#00AEEF;stroke-width:0.5;opacity:1.0;" x1="2877.44" x2="2877.44" y1="600.785" y2="720.121"/>
  <line id="right-margin-Black-S" style="fill:none;stroke:#00AEEF;stroke-width:0.5;opacity:1.0;" x1="2989.36" x2="2989.36" y1="600.785" y2="720.121"/>
 </g>
 <g id="Symbols">
  <g id="Black-S" transform="matrix(1 0 0 1 2877.44 696)">
   <path class="hierarchical-0:secondary SFSymbolsPreview4D4D4D" d="M25-10.0098L37.8418-10.0098L37.8418-24.1699L27.2461-24.1699Q25.5859-24.1699 24.7559-24.9268Q23.9258-25.6836 23.9258-27.4902L23.9258-63.4277Q23.9258-65.2832 24.7559-66.0156Q25.5859-66.748 27.2461-66.748L63.1836-66.748Q64.8926-66.748 65.6982-66.0156Q66.5039-65.2832 66.5039-63.4277L66.5039-55.5176L80.6641-55.5176L80.6641-65.6738Q80.6641-72.8516 76.6357-76.8799Q72.6074-80.9082 65.4297-80.9082L25-80.9082Q17.8223-80.9082 13.7939-76.8799Q9.76562-72.8516 9.76562-65.6738L9.76562-25.2441Q9.76562-18.0664 13.7939-14.0381Q17.8223-10.0098 25-10.0098Z"/>
   <path class="hierarchical-1:primary SFSymbolsPreview212121" d="M48.4375 10.498L86.9141 10.498Q94.0918 10.498 98.1201 6.46973Q102.148 2.44141 102.148-4.73633L102.148-43.2129Q102.148-50.3906 98.1201-54.4189Q94.0918-58.4473 86.9141-58.4473L48.4375-58.4473Q41.2598-58.4473 37.2314-54.4189Q33.2031-50.3906 33.2031-43.2129L33.2031-4.73633Q33.2031 2.44141 37.2314 6.46973Q41.2598 10.498 48.4375 10.498ZM67.1875-5.07812Q65.7715-5.07812 65.4297-6.68945Q64.6484-10.9863 63.7939-13.5498Q62.9395-16.1133 61.499-17.4805Q60.0586-18.8477 57.5684-19.6045Q55.0781-20.3613 51.0254-21.0938Q49.3652-21.4355 49.3652-22.998Q49.3652-24.5117 51.0254-24.7559Q55.2246-25.293 57.8125-26.0498Q60.4004-26.8066 61.8896-28.2715Q63.3789-29.7363 64.1357-32.3242Q64.8926-34.9121 65.4297-39.1602Q65.5762-40.7715 67.1875-40.7715Q68.6523-40.7715 69.043-39.1602Q69.7754-34.8633 70.6055-32.2266Q71.4355-29.5898 72.876-28.1494Q74.3164-26.709 76.8066-26.001Q79.2969-25.293 83.3984-24.7559Q85.1074-24.5117 85.1074-22.998Q85.1074-21.3379 83.3984-21.0938Q79.1504-20.6055 76.5625-19.8486Q73.9746-19.0918 72.5342-17.627Q71.0938-16.1621 70.3613-13.5498Q69.6289-10.9375 69.043-6.68945Q68.7988-5.07812 67.1875-5.07812ZM50.6348 1.12305Q49.6094 1.12305 49.3652 0Q49.0234-2.83203 48.6084-4.05273Q48.1934-5.27344 46.9482-5.7373Q45.7031-6.20117 42.8223-6.64062Q41.5527-6.88477 41.5527-7.91016Q41.5527-8.83789 42.6758-9.17969Q45.6543-9.7168 46.9238-10.1807Q48.1934-10.6445 48.6084-11.8408Q49.0234-13.0371 49.3652-15.7715Q49.6094-16.9434 50.6348-16.9434Q51.7578-16.9434 51.9043-15.7715Q52.2461-12.8906 52.6611-11.6455Q53.0762-10.4004 54.3945-9.98535Q55.7129-9.57031 58.6426-9.17969Q59.668-8.93555 59.668-7.91016Q59.668-6.88477 58.6426-6.64062Q55.6641-6.10352 54.3945-5.61523Q53.125-5.12695 52.71-3.93066Q52.2949-2.73438 51.9043 0.0488281Q51.7578 1.12305 50.6348 1.12305Z"/>
  </g>
  <g id="Regular-S" transform="matrix(1 0 0 1 1399.16 696)">
   <path class="hierarchical-0:secondary SFSymbolsPreview4D4D4D" d="M22.2168-12.7441L32.0312-12.7441L32.0312-19.7754L22.3145-19.7754Q19.6777-19.7754 18.2373-21.1914Q16.7969-22.6074 16.7969-25.3906L16.7969-63.3789Q16.7969-66.1621 18.2373-67.5781Q19.6777-68.9941 22.3145-68.9941L60.498-68.9941Q63.1348-68.9941 64.5752-67.5781Q66.0156-66.1621 66.0156-63.3789L66.0156-54.3945L73.0469-54.3945L73.0469-63.7695Q73.0469-69.9219 69.9463-72.9736Q66.8457-76.0254 60.5957-76.0254L22.2168-76.0254Q15.9668-76.0254 12.8662-72.9736Q9.76562-69.9219 9.76562-63.7695L9.76562-25Q9.76562-18.8477 12.8662-15.7959Q15.9668-12.7441 22.2168-12.7441Z"/>
   <path class="hierarchical-1:primary SFSymbolsPreview212121" d="M40.7715 5.61523L79.1504 5.61523Q85.4004 5.61523 88.501 2.56348Q91.6016-0.488281 91.6016-6.64062L91.6016-45.4102Q91.6016-51.5625 88.501-54.6143Q85.4004-57.666 79.1504-57.666L40.7715-57.666Q34.5215-57.666 31.4209-54.6143Q28.3203-51.5625 28.3203-45.4102L28.3203-6.64062Q28.3203-0.488281 31.4209 2.56348Q34.5215 5.61523 40.7715 5.61523ZM61.9629-10.5957Q60.5469-10.5957 60.3027-12.0117Q59.7168-16.0645 58.9111-18.7012Q58.1055-21.3379 56.6162-22.9492Q55.127-24.5605 52.4902-25.4639Q49.8535-26.3672 45.5078-26.9043Q44.043-27.1484 44.043-28.5156Q44.043-29.8828 45.5078-30.127Q49.8535-30.7129 52.417-31.6162Q54.9805-32.5195 56.4209-34.1064Q57.8613-35.6934 58.6914-38.3301Q59.5215-40.9668 60.3027-45.0195Q60.6934-46.4355 61.9629-46.4355Q63.2812-46.4355 63.5254-44.9707Q64.1602-41.0156 64.9658-38.4033Q65.7715-35.791 67.2607-34.1797Q68.75-32.5684 71.4111-31.6406Q74.0723-30.7129 78.3691-30.127Q79.834-29.8828 79.834-28.5156Q79.834-27.0996 78.3691-26.9043Q74.0723-26.3184 71.4844-25.415Q68.8965-24.5117 67.4805-22.9248Q66.0645-21.3379 65.21-18.7012Q64.3555-16.0645 63.5254-11.9629Q63.2324-10.5957 61.9629-10.5957ZM46.4355-3.95508Q45.5566-3.95508 45.166-5.07812Q44.5801-7.91016 44.2139-9.15527Q43.8477-10.4004 42.7002-10.8398Q41.5527-11.2793 38.5254-11.7676Q37.3535-11.9629 37.3535-13.0371Q37.3535-14.0625 38.4277-14.2578Q41.5039-14.7949 42.6758-15.2588Q43.8477-15.7227 44.2139-16.9434Q44.5801-18.1641 45.166-20.9961Q45.5566-22.168 46.4355-22.168Q47.4121-22.168 47.7539-20.9961Q48.3398-18.1641 48.7061-16.9434Q49.0723-15.7227 50.2686-15.2588Q51.4648-14.7949 54.541-14.2578Q55.6152-14.0625 55.6152-13.0371Q55.6152-12.0117 54.541-11.7676Q51.4648-11.2793 50.2686-10.8154Q49.0723-10.3516 48.7061-9.10645Q48.3398-7.86133 47.7539-4.98047Q47.4121-3.95508 46.4355-3.95508Z"/>
  </g>
  <g id="Ultralight-S" transform="matrix(1 0 0 1 511.434 696)">
   <path class="hierarchical-0:secondary SFSymbolsPreview4D4D4D" d="M19.7754-13.3301L28.9551-13.3301L28.9551-15.5762L19.873-15.5762Q15.9668-15.5762 13.9648-17.5781Q11.9629-19.5801 11.9629-23.4375L11.9629-61.7188Q11.9629-65.625 13.9648-67.6025Q15.9668-69.5801 19.873-69.5801L58.1543-69.5801Q61.8652-69.5801 63.9404-67.6025Q66.0156-65.625 66.0156-61.7188L66.0156-56.0059L68.2129-56.0059L68.2129-61.8164Q68.2129-66.6504 65.6738-69.2383Q63.1348-71.8262 58.252-71.8262L19.7754-71.8262Q14.8438-71.8262 12.3047-69.2627Q9.76562-66.6992 9.76562-61.8164L9.76562-23.3398Q9.76562-18.457 12.3047-15.8936Q14.8438-13.3301 19.7754-13.3301Z"/>
   <path class="hierarchical-1:primary SFSymbolsPreview212121" d="M38.3301 1.46484L76.8066 1.46484Q81.6895 1.46484 84.2285-1.09863Q86.7676-3.66211 86.7676-8.49609L86.7676-47.0215Q86.7676-51.8555 84.2285-54.4189Q81.6895-56.9824 76.8066-56.9824L38.3301-56.9824Q33.3984-56.9824 30.8594-54.4434Q28.3203-51.9043 28.3203-47.0215L28.3203-8.49609Q28.3203-3.56445 30.8594-1.0498Q33.3984 1.46484 38.3301 1.46484ZM59.4238-9.91211Q58.6914-9.91211 58.5938-10.6445Q57.9102-16.1621 57.1289-19.6045Q56.3477-23.0469 54.7119-24.8291Q53.0762-26.6113 49.9268-27.2461Q46.7773-27.8809 41.3086-27.9297Q40.5762-27.9297 40.5762-28.6133Q40.5762-29.248 41.3086-29.3457Q46.7285-30.0293 49.8291-30.7373Q52.9297-31.4453 54.541-33.0078Q56.1523-34.5703 56.958-37.793Q57.7637-41.0156 58.5938-46.6797Q58.6914-47.3145 59.4238-47.3145Q60.0586-47.3145 60.1074-46.6797Q60.9375-41.0645 61.7676-37.8418Q62.5977-34.6191 64.209-33.0322Q65.8203-31.4453 68.9209-30.7373Q72.0215-30.0293 77.4902-29.3457Q78.125-29.248 78.125-28.6133Q78.125-27.9785 77.4902-27.9297Q72.0215-27.2461 68.8721-26.5137Q65.7227-25.7812 64.1113-24.1943Q62.5-22.6074 61.6699-19.4092Q60.8398-16.2109 60.1074-10.6445Q60.0586-9.91211 59.4238-9.91211ZM43.75-4.39453Q43.3594-4.39453 43.3594-4.6875Q43.0176-7.4707 42.6025-8.98438Q42.1875-10.498 40.6982-11.2549Q39.209-12.0117 35.6934-12.3535Q35.4004-12.3535 35.4004-12.6953Q35.4004-13.0859 35.6934-13.0859Q39.209-13.5254 40.6982-14.2334Q42.1875-14.9414 42.6025-16.4551Q43.0176-17.9688 43.3594-20.7031Q43.3594-21.0449 43.75-21.0449Q43.9941-21.0449 44.043-20.7031Q44.3848-17.9688 44.8242-16.4551Q45.2637-14.9414 46.7529-14.2334Q48.2422-13.5254 51.709-13.0859Q52.0508-13.0859 52.0508-12.6953Q52.0508-12.3535 51.709-12.3535Q48.1934-12.0117 46.7285-11.2549Q45.2637-10.498 44.8242-8.98438Q44.3848-7.4707 44.043-4.6875Q43.9941-4.39453 43.75-4.39453Z"/>
  </g>
 </g>
</svg>
