<svg width="512" height="512" viewBox="0 0 512 512" xmlns="http://www.w3.org/2000/svg" xmlns:xlink="http://www.w3.org/1999/xlink">
    <path id="path1" fill="#ff4b55" stroke="none" d="M 473.654999 88.276001 L 38.345001 88.276001 C 17.167 88.276001 0 105.442993 0 126.621002 L 0 256 L 512 256 L 512 126.621002 C 512 105.442993 494.833008 88.276001 473.654999 88.276001 Z"/>
    <path id="--5" fill="#f5f5f5" stroke="none" d="M 71.569 172.261993 C 71.569 143.234009 92.869003 119.17099 120.681999 114.718994 C 122.192001 114.47699 122.260002 112.399994 120.769997 112.056 C 113.884003 110.472992 106.570999 110.022003 98.976997 111.056 C 68.978996 115.141998 45.791 141.10199 45.367001 171.373993 C 44.883999 205.940002 72.75 234.085999 107.152 234.085999 C 111.834999 234.085999 116.382004 233.539001 120.758003 232.531982 C 122.247002 232.190002 122.171997 230.108002 120.664001 229.865997 C 92.862 225.419006 71.569 201.403992 71.569 172.261993 Z"/>
    <path id="--4" fill="#f5f5f5" stroke="none" d="M 121.139999 187.794006 L 118.527 195.630005 L 110.267998 195.694 C 109.198997 195.703003 108.754997 197.067017 109.615997 197.701996 L 116.260002 202.609009 L 113.767998 210.484009 C 113.445999 211.503998 114.607002 212.346985 115.475998 211.725006 L 122.195999 206.921997 L 128.916 211.725006 C 129.785995 212.346985 130.945999 211.502991 130.623993 210.484009 L 128.132004 202.609009 L 134.776001 197.701996 C 135.636993 197.065979 135.192993 195.703003 134.123993 195.694 L 125.864998 195.630005 L 123.251999 187.794006 C 122.913002 186.781006 121.477997 186.781006 121.139999 187.794006 Z"/>
    <path id="--3" fill="#f5f5f5" stroke="none" d="M 161.966995 187.794006 L 159.354004 195.630005 L 151.095001 195.694 C 150.026001 195.703003 149.582001 197.067017 150.442993 197.701996 L 157.087006 202.609009 L 154.595001 210.484009 C 154.272995 211.503998 155.434006 212.346985 156.302994 211.725006 L 163.022995 206.921997 L 169.742996 211.725006 C 170.613007 212.346985 171.772995 211.502991 171.451004 210.484009 L 168.959 202.609009 L 175.602997 197.701996 C 176.464005 197.065979 176.020004 195.703003 174.951004 195.694 L 166.692001 195.630005 L 164.078995 187.794006 C 163.740005 186.781006 162.306 186.781006 161.966995 187.794006 Z"/>
    <path id="--2" fill="#f5f5f5" stroke="none" d="M 141.738007 124.789001 L 139.125 132.625 L 130.865997 132.688995 C 129.796997 132.697021 129.352997 134.062012 130.214005 134.697021 L 136.858002 139.604004 L 134.365997 147.479004 C 134.044006 148.498993 135.205002 149.34198 136.074005 148.720001 L 142.794006 143.916992 L 149.514008 148.720001 C 150.384003 149.34198 151.544006 148.497986 151.222 147.479004 L 148.729996 139.604004 L 155.373993 134.697021 C 156.235001 134.061005 155.791 132.697998 154.722 132.688995 L 146.462997 132.625 L 143.850006 124.789001 C 143.511002 123.774994 142.076004 123.774994 141.738007 124.789001 Z"/>
    <path id="--1" fill="#f5f5f5" stroke="none" d="M 109.185997 148.927979 L 106.572998 156.764008 L 98.314003 156.828003 C 97.245003 156.835999 96.801003 158.200989 97.662003 158.835999 L 104.306 163.742981 L 101.814003 171.617981 C 101.491997 172.638 102.653 173.481018 103.522003 172.859009 L 110.241997 168.056 L 116.961998 172.859009 C 117.832001 173.481018 118.991997 172.636993 118.669998 171.617981 L 116.178001 163.742981 L 122.822998 158.835999 C 123.683998 158.200012 123.239998 156.837006 122.170998 156.828003 L 113.912003 156.764008 L 111.299004 148.927979 C 110.959 147.912994 109.524002 147.912994 109.185997 148.927979 Z"/>
    <path id="-" fill="#f5f5f5" stroke="none" d="M 174.014008 148.927979 L 171.401001 156.764008 L 163.141998 156.828003 C 162.072998 156.835999 161.628998 158.200989 162.490005 158.835999 L 169.134003 163.742981 L 166.641998 171.617981 C 166.320007 172.638 167.481003 173.481018 168.350006 172.859009 L 175.070007 168.056 L 181.789993 172.859009 C 182.660004 173.481018 183.820007 172.636993 183.498001 171.617981 L 181.005997 163.742981 L 187.649994 158.835999 C 188.511002 158.200012 188.067001 156.837006 186.998001 156.828003 L 178.738998 156.764008 L 176.126007 148.927979 C 175.787003 147.912994 174.352005 147.912994 174.014008 148.927979 Z"/>
    <path id="path2" fill="#f5f5f5" stroke="none" d="M 0 385.378998 C 0 406.556 17.167 423.723999 38.345001 423.723999 L 473.654999 423.723999 C 494.832001 423.723999 512 406.557007 512 385.378998 L 512 256 L 0 256 L 0 385.378998 Z"/>
    <g id="g1"/>
    <g id="g2"/>
    <g id="g3"/>
    <g id="g4"/>
    <g id="g5"/>
    <g id="g6"/>
    <g id="g7"/>
    <g id="g8"/>
    <g id="g9"/>
    <g id="g10"/>
    <g id="g11"/>
    <g id="g12"/>
    <g id="g13"/>
    <g id="g14"/>
    <g id="g15"/>
</svg>
