<?xml version="1.0" encoding="UTF-8"?>
<!--Generator: Apple Native CoreSVG 175-->
<!DOCTYPE svg
PUBLIC "-//W3C//DTD SVG 1.1//EN"
       "http://www.w3.org/Graphics/SVG/1.1/DTD/svg11.dtd">
<svg version="1.1" xmlns="http://www.w3.org/2000/svg" xmlns:xlink="http://www.w3.org/1999/xlink" width="3300" height="2200">
 <!--glyph: "uni1007F0.medium", point size: 100.0, font version: "17.3d3e1", template writer version: "65.1"-->
 <g id="Notes">
  <rect height="2200" id="artboard" style="fill:white;opacity:1" width="3300" x="0" y="0"/>
  <line style="fill:none;stroke:black;opacity:1;stroke-width:0.5;" x1="263" x2="3036" y1="292" y2="292"/>
  <text style="stroke:none;fill:black;font-family:sans-serif;font-size:13;font-weight:bold;" transform="matrix(1 0 0 1 263 322)">Weight/Scale Variations</text>
  <text style="stroke:none;fill:black;font-family:sans-serif;font-size:13;text-anchor:middle;" transform="matrix(1 0 0 1 559.711 322)">Ultralight</text>
  <text style="stroke:none;fill:black;font-family:sans-serif;font-size:13;text-anchor:middle;" transform="matrix(1 0 0 1 856.422 322)">Thin</text>
  <text style="stroke:none;fill:black;font-family:sans-serif;font-size:13;text-anchor:middle;" transform="matrix(1 0 0 1 1153.13 322)">Light</text>
  <text style="stroke:none;fill:black;font-family:sans-serif;font-size:13;text-anchor:middle;" transform="matrix(1 0 0 1 1449.84 322)">Regular</text>
  <text style="stroke:none;fill:black;font-family:sans-serif;font-size:13;text-anchor:middle;" transform="matrix(1 0 0 1 1746.56 322)">Medium</text>
  <text style="stroke:none;fill:black;font-family:sans-serif;font-size:13;text-anchor:middle;" transform="matrix(1 0 0 1 2043.27 322)">Semibold</text>
  <text style="stroke:none;fill:black;font-family:sans-serif;font-size:13;text-anchor:middle;" transform="matrix(1 0 0 1 2339.98 322)">Bold</text>
  <text style="stroke:none;fill:black;font-family:sans-serif;font-size:13;text-anchor:middle;" transform="matrix(1 0 0 1 2636.69 322)">Heavy</text>
  <text style="stroke:none;fill:black;font-family:sans-serif;font-size:13;text-anchor:middle;" transform="matrix(1 0 0 1 2933.4 322)">Black</text>
  <line style="fill:none;stroke:black;opacity:1;stroke-width:0.5;" x1="263" x2="3036" y1="1903" y2="1903"/>
  <g transform="matrix(1 0 0 1 263 1933)">
   <path d="M9.24805 0.830078Q10.8691 0.830078 12.2949 0.214844Q13.7207-0.400391 14.8096-1.49414Q15.8984-2.58789 16.5186-4.01367Q17.1387-5.43945 17.1387-7.05078Q17.1387-8.66211 16.5186-10.0879Q15.8984-11.5137 14.8047-12.6074Q13.7109-13.7012 12.2852-14.3164Q10.8594-14.9316 9.23828-14.9316Q7.62695-14.9316 6.20117-14.3164Q4.77539-13.7012 3.69141-12.6074Q2.60742-11.5137 1.9873-10.0879Q1.36719-8.66211 1.36719-7.05078Q1.36719-5.43945 1.9873-4.01367Q2.60742-2.58789 3.69629-1.49414Q4.78516-0.400391 6.21094 0.214844Q7.63672 0.830078 9.24805 0.830078ZM9.24805-0.654297Q7.91992-0.654297 6.7627-1.14746Q5.60547-1.64062 4.73145-2.51953Q3.85742-3.39844 3.36426-4.56055Q2.87109-5.72266 2.87109-7.05078Q2.87109-8.37891 3.35938-9.54102Q3.84766-10.7031 4.72168-11.582Q5.5957-12.4609 6.75293-12.9541Q7.91016-13.4473 9.23828-13.4473Q10.5762-13.4473 11.7334-12.9541Q12.8906-12.4609 13.7695-11.582Q14.6484-10.7031 15.1465-9.54102Q15.6445-8.37891 15.6445-7.05078Q15.6445-5.72266 15.1514-4.56055Q14.6582-3.39844 13.7842-2.51953Q12.9102-1.64062 11.748-1.14746Q10.5859-0.654297 9.24805-0.654297ZM5.6543-7.05078Q5.6543-6.72852 5.85938-6.52832Q6.06445-6.32812 6.40625-6.32812L8.51562-6.32812L8.51562-4.20898Q8.51562-3.88672 8.71094-3.67676Q8.90625-3.4668 9.23828-3.4668Q9.56055-3.4668 9.77051-3.67676Q9.98047-3.88672 9.98047-4.20898L9.98047-6.32812L12.0898-6.32812Q12.4219-6.32812 12.627-6.52832Q12.832-6.72852 12.832-7.05078Q12.832-7.38281 12.627-7.58789Q12.4219-7.79297 12.0898-7.79297L9.98047-7.79297L9.98047-9.90234Q9.98047-10.2344 9.77051-10.4443Q9.56055-10.6543 9.23828-10.6543Q8.90625-10.6543 8.71094-10.4443Q8.51562-10.2344 8.51562-9.90234L8.51562-7.79297L6.40625-7.79297Q6.06445-7.79297 5.85938-7.58789Q5.6543-7.38281 5.6543-7.05078Z"/>
  </g>
  <g transform="matrix(1 0 0 1 281.867 1933)">
   <path d="M11.709 2.91016Q13.75 2.91016 15.5518 2.12891Q17.3535 1.34766 18.7305-0.0292969Q20.1074-1.40625 20.8887-3.20801Q21.6699-5.00977 21.6699-7.05078Q21.6699-9.0918 20.8887-10.8936Q20.1074-12.6953 18.7305-14.0723Q17.3535-15.4492 15.5469-16.2305Q13.7402-17.0117 11.6992-17.0117Q9.6582-17.0117 7.85645-16.2305Q6.05469-15.4492 4.68262-14.0723Q3.31055-12.6953 2.5293-10.8936Q1.74805-9.0918 1.74805-7.05078Q1.74805-5.00977 2.5293-3.20801Q3.31055-1.40625 4.6875-0.0292969Q6.06445 1.34766 7.86621 2.12891Q9.66797 2.91016 11.709 2.91016ZM11.709 1.25Q9.98047 1.25 8.47656 0.605469Q6.97266-0.0390625 5.83496-1.17676Q4.69727-2.31445 4.05762-3.81836Q3.41797-5.32227 3.41797-7.05078Q3.41797-8.7793 4.05762-10.2832Q4.69727-11.7871 5.83008-12.9297Q6.96289-14.0723 8.4668-14.7119Q9.9707-15.3516 11.6992-15.3516Q13.4277-15.3516 14.9316-14.7119Q16.4355-14.0723 17.5781-12.9297Q18.7207-11.7871 19.3652-10.2832Q20.0098-8.7793 20.0098-7.05078Q20.0098-5.32227 19.3701-3.81836Q18.7305-2.31445 17.5928-1.17676Q16.4551-0.0390625 14.9463 0.605469Q13.4375 1.25 11.709 1.25ZM7.17773-7.05078Q7.17773-6.69922 7.41211-6.47461Q7.64648-6.25 8.01758-6.25L10.8887-6.25L10.8887-3.36914Q10.8887-2.99805 11.1133-2.76855Q11.3379-2.53906 11.6895-2.53906Q12.0605-2.53906 12.29-2.76855Q12.5195-2.99805 12.5195-3.36914L12.5195-6.25L15.4004-6.25Q15.7715-6.25 16.001-6.47461Q16.2305-6.69922 16.2305-7.05078Q16.2305-7.42188 16.001-7.65137Q15.7715-7.88086 15.4004-7.88086L12.5195-7.88086L12.5195-10.752Q12.5195-11.1328 12.29-11.3623Q12.0605-11.5918 11.6895-11.5918Q11.3379-11.5918 11.1133-11.3574Q10.8887-11.123 10.8887-10.752L10.8887-7.88086L8.01758-7.88086Q7.63672-7.88086 7.40723-7.65137Q7.17773-7.42188 7.17773-7.05078Z"/>
  </g>
  <g transform="matrix(1 0 0 1 305.646 1933)">
   <path d="M14.9707 5.66406Q17.0605 5.66406 18.96 5.01465Q20.8594 4.36523 22.4512 3.19336Q24.043 2.02148 25.2197 0.429688Q26.3965-1.16211 27.0459-3.06641Q27.6953-4.9707 27.6953-7.05078Q27.6953-9.14062 27.0459-11.04Q26.3965-12.9395 25.2197-14.5312Q24.043-16.123 22.4512-17.2998Q20.8594-18.4766 18.9551-19.126Q17.0508-19.7754 14.9609-19.7754Q12.8711-19.7754 10.9717-19.126Q9.07227-18.4766 7.48535-17.2998Q5.89844-16.123 4.72168-14.5312Q3.54492-12.9395 2.90039-11.04Q2.25586-9.14062 2.25586-7.05078Q2.25586-4.9707 2.90527-3.06641Q3.55469-1.16211 4.72656 0.429688Q5.89844 2.02148 7.49023 3.19336Q9.08203 4.36523 10.9814 5.01465Q12.8809 5.66406 14.9707 5.66406ZM14.9707 3.84766Q13.1641 3.84766 11.5283 3.2959Q9.89258 2.74414 8.53516 1.74805Q7.17773 0.751953 6.17676-0.610352Q5.17578-1.97266 4.62891-3.6084Q4.08203-5.24414 4.08203-7.05078Q4.08203-8.86719 4.62891-10.5029Q5.17578-12.1387 6.17188-13.501Q7.16797-14.8633 8.52539-15.8594Q9.88281-16.8555 11.5186-17.4023Q13.1543-17.9492 14.9609-17.9492Q16.7773-17.9492 18.4131-17.4023Q20.0488-16.8555 21.4111-15.8594Q22.7734-14.8633 23.7695-13.501Q24.7656-12.1387 25.3174-10.5029Q25.8691-8.86719 25.8691-7.05078Q25.8789-5.24414 25.332-3.6084Q24.7852-1.97266 23.7842-0.610352Q22.7832 0.751953 21.4209 1.74805Q20.0586 2.74414 18.4229 3.2959Q16.7871 3.84766 14.9707 3.84766ZM9.19922-7.05078Q9.19922-6.66992 9.45801-6.4209Q9.7168-6.17188 10.1172-6.17188L14.0625-6.17188L14.0625-2.2168Q14.0625-1.81641 14.3115-1.55762Q14.5605-1.29883 14.9512-1.29883Q15.3516-1.29883 15.6104-1.55273Q15.8691-1.80664 15.8691-2.2168L15.8691-6.17188L19.8242-6.17188Q20.2246-6.17188 20.4785-6.4209Q20.7324-6.66992 20.7324-7.05078Q20.7324-7.46094 20.4785-7.71484Q20.2246-7.96875 19.8242-7.96875L15.8691-7.96875L15.8691-11.9141Q15.8691-12.3242 15.6104-12.583Q15.3516-12.8418 14.9512-12.8418Q14.5605-12.8418 14.3115-12.583Q14.0625-12.3242 14.0625-11.9141L14.0625-7.96875L10.1172-7.96875Q9.70703-7.96875 9.45312-7.71484Q9.19922-7.46094 9.19922-7.05078Z"/>
  </g>
  <text style="stroke:none;fill:black;font-family:sans-serif;font-size:13;font-weight:bold;" transform="matrix(1 0 0 1 263 1953)">Design Variations</text>
  <text style="stroke:none;fill:black;font-family:sans-serif;font-size:13;" transform="matrix(1 0 0 1 263 1971)">Symbols are supported in up to nine weights and three scales.</text>
  <text style="stroke:none;fill:black;font-family:sans-serif;font-size:13;" transform="matrix(1 0 0 1 263 1989)">For optimal layout with text and other symbols, vertically align</text>
  <text style="stroke:none;fill:black;font-family:sans-serif;font-size:13;" transform="matrix(1 0 0 1 263 2007)">symbols with the adjacent text.</text>
  <line style="fill:none;stroke:#00AEEF;stroke-width:0.5;opacity:1.0;" x1="776" x2="776" y1="1919" y2="1933"/>
  <g transform="matrix(1 0 0 1 776 1933)">
   <path d="M3.31055 0.15625Q3.70117 0.15625 3.91602-0.00976562Q4.13086-0.175781 4.26758-0.585938L5.52734-4.0332L11.2891-4.0332L12.5488-0.585938Q12.6855-0.175781 12.9004-0.00976562Q13.1152 0.15625 13.4961 0.15625Q13.8867 0.15625 14.1162-0.0585938Q14.3457-0.273438 14.3457-0.644531Q14.3457-0.869141 14.2383-1.17188L9.6582-13.3691Q9.48242-13.8184 9.17969-14.043Q8.87695-14.2676 8.4082-14.2676Q7.5-14.2676 7.17773-13.3789L2.59766-1.16211Q2.49023-0.859375 2.49023-0.634766Q2.49023-0.263672 2.70996-0.0537109Q2.92969 0.15625 3.31055 0.15625ZM6.00586-5.51758L8.37891-12.0898L8.42773-12.0898L10.8008-5.51758Z"/>
  </g>
  <line style="fill:none;stroke:#00AEEF;stroke-width:0.5;opacity:1.0;" x1="793.197" x2="793.197" y1="1919" y2="1933"/>
  <text style="stroke:none;fill:black;font-family:sans-serif;font-size:13;font-weight:bold;" transform="matrix(1 0 0 1 776 1953)">Margins</text>
  <text style="stroke:none;fill:black;font-family:sans-serif;font-size:13;" transform="matrix(1 0 0 1 776 1971)">Leading and trailing margins on the left and right side of each symbol</text>
  <text style="stroke:none;fill:black;font-family:sans-serif;font-size:13;" transform="matrix(1 0 0 1 776 1989)">can be adjusted by modifying the x-location of the margin guidelines.</text>
  <text style="stroke:none;fill:black;font-family:sans-serif;font-size:13;" transform="matrix(1 0 0 1 776 2007)">Modifications are automatically applied proportionally to all</text>
  <text style="stroke:none;fill:black;font-family:sans-serif;font-size:13;" transform="matrix(1 0 0 1 776 2025)">scales and weights.</text>
  <g transform="matrix(1 0 0 1 1289 1933)">
   <path d="M2.8418 1.86523L4.54102 3.57422Q5.18555 4.22852 5.90332 4.17969Q6.62109 4.13086 7.31445 3.35938L18.0078-8.42773L17.041-9.4043L6.42578 2.27539Q6.16211 2.57812 5.89355 2.61719Q5.625 2.65625 5.27344 2.30469L4.10156 1.14258Q3.75 0.791016 3.79395 0.522461Q3.83789 0.253906 4.14062-0.0195312L15.6152-10.8203L14.6387-11.7871L3.04688-0.898438Q2.30469-0.214844 2.25098 0.498047Q2.19727 1.21094 2.8418 1.86523ZM9.25781-16.3281Q8.94531-16.0254 8.90625-15.6348Q8.86719-15.2441 9.04297-14.9512Q9.21875-14.6777 9.55566-14.541Q9.89258-14.4043 10.3809-14.5215Q11.4746-14.7754 12.5977-14.7314Q13.7207-14.6875 14.7949-13.9844L14.209-12.5293Q13.9551-11.9043 14.0674-11.4404Q14.1797-10.9766 14.5801-10.5664L16.875-8.25195Q17.2363-7.88086 17.5781-7.82227Q17.9199-7.76367 18.3398-7.8418L19.4043-8.03711L20.0684-7.36328L20.0293-6.80664Q20-6.43555 20.1221-6.12305Q20.2441-5.81055 20.6055-5.44922L21.3672-4.70703Q21.7285-4.3457 22.1533-4.33105Q22.5781-4.31641 22.9297-4.66797L25.8398-7.58789Q26.1914-7.93945 26.1816-8.35449Q26.1719-8.76953 25.8105-9.13086L25.0391-9.89258Q24.6875-10.2539 24.3799-10.3857Q24.0723-10.5176 23.7109-10.4883L23.1348-10.4395L22.4902-11.0742L22.7344-12.1973Q22.832-12.6172 22.6953-12.9834Q22.5586-13.3496 22.1191-13.7891L19.9219-15.9766Q18.6719-17.2168 17.2607-17.8369Q15.8496-18.457 14.4189-18.4814Q12.9883-18.5059 11.665-17.959Q10.3418-17.4121 9.25781-16.3281ZM10.752-15.957Q11.6602-16.6211 12.7002-16.9043Q13.7402-17.1875 14.8047-17.085Q15.8691-16.9824 16.8701-16.5137Q17.8711-16.0449 18.7012-15.2051L21.1328-12.793Q21.3086-12.6172 21.3525-12.4512Q21.3965-12.2852 21.3379-12.0312L21.0156-10.5469L22.5195-9.0625L23.5059-9.12109Q23.6914-9.13086 23.7891-9.09668Q23.8867-9.0625 24.0332-8.91602L24.6094-8.33984L22.168-5.89844L21.5918-6.47461Q21.4453-6.62109 21.4062-6.71875Q21.3672-6.81641 21.377-7.01172L21.4453-7.98828L19.9512-9.47266L18.4277-9.21875Q18.1836-9.16992 18.042-9.2041Q17.9004-9.23828 17.7148-9.41406L15.7129-11.416Q15.5176-11.5918 15.4932-11.7529Q15.4688-11.9141 15.5859-12.1875L16.4648-14.2773Q15.293-15.3711 13.8281-15.791Q12.3633-16.2109 10.8398-15.7617Q10.7227-15.7324 10.6885-15.8057Q10.6543-15.8789 10.752-15.957Z"/>
  </g>
  <text style="stroke:none;fill:black;font-family:sans-serif;font-size:13;font-weight:bold;" transform="matrix(1 0 0 1 1289 1953)">Exporting</text>
  <text style="stroke:none;fill:black;font-family:sans-serif;font-size:13;" transform="matrix(1 0 0 1 1289 1971)">Symbols should be outlined when exporting to ensure the</text>
  <text style="stroke:none;fill:black;font-family:sans-serif;font-size:13;" transform="matrix(1 0 0 1 1289 1989)">design is preserved when submitting to Xcode.</text>
  <text id="template-version" style="stroke:none;fill:black;font-family:sans-serif;font-size:13;text-anchor:end;" transform="matrix(1 0 0 1 3036 1933)">Template v.3.0</text>
  <text style="stroke:none;fill:black;font-family:sans-serif;font-size:13;text-anchor:end;" transform="matrix(1 0 0 1 3036 1951)">Requires Xcode 13 or greater</text>
  <text id="descriptive-name" style="stroke:none;fill:black;font-family:sans-serif;font-size:13;text-anchor:end;" transform="matrix(1 0 0 1 3036 1969)">Generated from hand.wave</text>
  <text style="stroke:none;fill:black;font-family:sans-serif;font-size:13;text-anchor:end;" transform="matrix(1 0 0 1 3036 1987)">Typeset at 100 points</text>
  <text style="stroke:none;fill:black;font-family:sans-serif;font-size:13;" transform="matrix(1 0 0 1 263 726)">Small</text>
  <text style="stroke:none;fill:black;font-family:sans-serif;font-size:13;" transform="matrix(1 0 0 1 263 1156)">Medium</text>
  <text style="stroke:none;fill:black;font-family:sans-serif;font-size:13;" transform="matrix(1 0 0 1 263 1586)">Large</text>
 </g>
 <g id="Guides">
  <g id="H-reference" style="fill:#27AAE1;stroke:none;" transform="matrix(1 0 0 1 339 696)">
   <path d="M0.993347 0L3.6377 0L29.3282-67.1326L30.0301-67.1326L30.0301-70.459L28.1227-70.459ZM11.6882-24.4797L46.9818-24.4797L46.2311-26.7288L12.4382-26.7288ZM55.1193 0L57.7637 0L30.6381-70.459L29.4327-70.459L29.4327-67.1326Z"/>
  </g>
  <line id="Baseline-S" style="fill:none;stroke:#27AAE1;opacity:1;stroke-width:0.5;" x1="263" x2="3036" y1="696" y2="696"/>
  <line id="Capline-S" style="fill:none;stroke:#27AAE1;opacity:1;stroke-width:0.5;" x1="263" x2="3036" y1="625.541" y2="625.541"/>
  <g id="H-reference" style="fill:#27AAE1;stroke:none;" transform="matrix(1 0 0 1 339 1126)">
   <path d="M0.993347 0L3.6377 0L29.3282-67.1326L30.0301-67.1326L30.0301-70.459L28.1227-70.459ZM11.6882-24.4797L46.9818-24.4797L46.2311-26.7288L12.4382-26.7288ZM55.1193 0L57.7637 0L30.6381-70.459L29.4327-70.459L29.4327-67.1326Z"/>
  </g>
  <line id="Baseline-M" style="fill:none;stroke:#27AAE1;opacity:1;stroke-width:0.5;" x1="263" x2="3036" y1="1126" y2="1126"/>
  <line id="Capline-M" style="fill:none;stroke:#27AAE1;opacity:1;stroke-width:0.5;" x1="263" x2="3036" y1="1055.54" y2="1055.54"/>
  <g id="H-reference" style="fill:#27AAE1;stroke:none;" transform="matrix(1 0 0 1 339 1556)">
   <path d="M0.993347 0L3.6377 0L29.3282-67.1326L30.0301-67.1326L30.0301-70.459L28.1227-70.459ZM11.6882-24.4797L46.9818-24.4797L46.2311-26.7288L12.4382-26.7288ZM55.1193 0L57.7637 0L30.6381-70.459L29.4327-70.459L29.4327-67.1326Z"/>
  </g>
  <line id="Baseline-L" style="fill:none;stroke:#27AAE1;opacity:1;stroke-width:0.5;" x1="263" x2="3036" y1="1556" y2="1556"/>
  <line id="Capline-L" style="fill:none;stroke:#27AAE1;opacity:1;stroke-width:0.5;" x1="263" x2="3036" y1="1485.54" y2="1485.54"/>
  <line id="left-margin-Ultralight-S" style="fill:none;stroke:#00AEEF;stroke-width:0.5;opacity:1.0;" x1="519.1" x2="519.1" y1="600.785" y2="720.121"/>
  <line id="right-margin-Ultralight-S" style="fill:none;stroke:#00AEEF;stroke-width:0.5;opacity:1.0;" x1="600.322" x2="600.322" y1="600.785" y2="720.121"/>
  <line id="left-margin-Regular-S" style="fill:none;stroke:#00AEEF;stroke-width:0.5;opacity:1.0;" x1="1405.53" x2="1405.53" y1="600.785" y2="720.121"/>
  <line id="right-margin-Regular-S" style="fill:none;stroke:#00AEEF;stroke-width:0.5;opacity:1.0;" x1="1494.16" x2="1494.16" y1="600.785" y2="720.121"/>
  <line id="left-margin-Black-S" style="fill:none;stroke:#00AEEF;stroke-width:0.5;opacity:1.0;" x1="2881.64" x2="2881.64" y1="600.785" y2="720.121"/>
  <line id="right-margin-Black-S" style="fill:none;stroke:#00AEEF;stroke-width:0.5;opacity:1.0;" x1="2985.16" x2="2985.16" y1="600.785" y2="720.121"/>
 </g>
 <g id="Symbols">
  <g id="Black-S" transform="matrix(1 0 0 1 2881.64 696)">
   <path d="M85.5957-1.2207Q94.7266-10.4004 96.3379-21.46Q97.9492-32.5195 91.9922-45.166L82.8613-64.502Q81.6406-67.1875 79.7363-68.9941Q76.6602-72.0703 72.4609-72.2412Q68.2617-72.4121 64.9902-69.0918Q63.3789-67.4805 62.6465-65.1855Q61.9141-62.8906 62.6465-60.7422L62.6465-60.5957Q62.6953-60.498 62.6465-60.3516Q62.5-60.2051 62.3535-60.3516L45.6543-77.0996Q42.1387-80.5664 37.6709-80.4688Q33.2031-80.3711 29.6387-76.7578Q28.7598-75.8789 27.8809-74.5117Q24.9512-75.4883 22.0703-74.6826Q19.1895-73.877 16.7969-71.4355Q14.4531-69.1895 13.6719-66.2842Q12.8906-63.3789 13.7695-60.498Q12.6465-59.8145 11.8652-58.9844Q8.49609-55.6152 8.37402-51.3916Q8.25195-47.168 11.377-43.9941L11.6699-43.75Q11.2305-43.457 10.8643-43.1885Q10.498-42.9199 10.2051-42.5781Q6.83594-39.209 6.83594-34.7412Q6.83594-30.2734 10.2051-26.9531L35.8887-1.26953Q43.4082 6.25 52.0752 8.76465Q60.7422 11.2793 69.4092 8.76465Q78.0762 6.25 85.5957-1.2207ZM76.8066-9.57031Q71.6797-4.44336 65.9424-2.75879Q60.2051-1.07422 54.4189-2.83203Q48.6328-4.58984 43.3105-9.91211L19.3359-33.9355Q18.9941-34.2285 18.9941-34.6436Q18.9941-35.0586 19.3359-35.4004Q19.6289-35.6934 20.0439-35.6934Q20.459-35.6934 20.8008-35.4004L35.2051-20.9473Q36.6211-19.5312 38.623-19.5557Q40.625-19.5801 42.0898-20.9961Q43.5059-22.4121 43.5059-24.4141Q43.5059-26.416 42.0898-27.832L20.166-49.7559Q19.8242-50.0488 19.8242-50.4639Q19.8242-50.8789 20.166-51.1719Q20.459-51.5137 20.874-51.5137Q21.2891-51.5137 21.6309-51.1719L41.9922-30.8105Q43.4082-29.3945 45.4102-29.4189Q47.4121-29.4434 48.877-30.8594Q50.2441-32.2754 50.2441-34.2773Q50.2441-36.2793 48.877-37.6953L24.707-61.8164Q24.4141-62.1582 24.4141-62.5488Q24.4141-62.9395 24.707-63.2812Q25-63.5742 25.415-63.5742Q25.8301-63.5742 26.1719-63.2812L48.4375-41.0156Q49.8535-39.5996 51.8555-39.624Q53.8574-39.6484 55.3223-41.0156Q56.7383-42.4316 56.7383-44.458Q56.7383-46.4844 55.3223-47.9004L36.8164-66.4062Q36.4746-66.6992 36.4746-67.0898Q36.4746-67.4805 36.7676-67.8223Q37.0605-68.1152 37.5-68.1396Q37.9395-68.1641 38.2324-67.8223L66.748-39.3555Q68.6523-37.4512 70.8496-37.6953Q73.0469-37.9395 74.5117-39.4531Q75.6836-40.6738 76.1719-42.4561Q76.6602-44.2383 75.9277-46.0938L70.9473-58.8867Q70.7031-59.4727 70.9473-59.8877Q71.1914-60.3027 71.5332-60.4492Q71.9238-60.5469 72.3145-60.4492Q72.7051-60.3516 72.9492-59.8633L81.6406-40.2344Q85.7422-30.8594 84.7168-23.6572Q83.6914-16.4551 76.8066-9.57031Z"/>
  </g>
  <g id="Regular-S" transform="matrix(1 0 0 1 1405.53 696)">
   <path d="M73.0957-5.76172Q80.4199-13.0859 81.5674-22.1436Q82.7148-31.2012 77.6367-41.9434L69.1895-59.7656Q68.2129-61.7188 66.9434-62.9883Q64.6484-65.2832 61.7432-65.21Q58.8379-65.1367 56.6895-62.9883Q55.2246-61.5234 54.8584-59.4727Q54.4922-57.4219 55.4199-55.0781L57.4219-50.1953Q57.5195-49.9512 57.373-49.8047Q57.1777-49.6094 56.9336-49.8535L36.0352-70.7031Q33.5938-73.1445 30.7373-73.1689Q27.8809-73.1934 25.4883-70.8008Q23.8281-69.1406 23.6816-66.8945Q21.2402-68.6523 18.7256-68.5303Q16.2109-68.4082 14.1602-66.3574Q12.1582-64.3555 12.0361-61.8408Q11.9141-59.3262 13.5742-56.9336Q11.5234-56.8359 10.0098-55.3223Q7.8125-53.125 7.88574-50.3906Q7.95898-47.6562 10.2539-45.3613L13.0859-42.5293Q11.9629-42.5781 10.8887-42.0654Q9.81445-41.5527 8.93555-40.6738Q6.73828-38.4766 6.83594-35.6445Q6.93359-32.8125 9.27734-30.4688L32.7148-7.03125Q39.0625-0.683594 46.167 1.58691Q53.2715 3.85742 60.2295 2.00195Q67.1875 0.146484 73.0957-5.76172ZM68.7012-9.86328Q63.8184-4.98047 58.3496-3.58887Q52.8809-2.19727 47.2412-4.19922Q41.6016-6.20117 36.2305-11.5723L13.7695-34.0332Q13.0371-34.8145 13.0127-35.7666Q12.9883-36.7188 13.7695-37.4512Q14.502-38.2324 15.4785-38.2324Q16.4551-38.2324 17.2363-37.5L31.2012-23.5352Q31.9824-22.7051 33.0811-22.7783Q34.1797-22.8516 34.9121-23.584Q35.6934-24.3652 35.7666-25.4883Q35.8398-26.6113 35.0586-27.3926L14.2578-48.1934Q13.4766-48.9258 13.4766-49.9023Q13.4766-50.8789 14.209-51.6113Q14.9902-52.3926 15.9668-52.3926Q16.9434-52.3926 17.7246-51.6602L37.1582-32.2266Q37.9395-31.4453 39.0137-31.4941Q40.0879-31.543 40.8691-32.2754Q41.6504-33.0566 41.7236-34.1797Q41.7969-35.3027 41.0156-36.084L18.1641-58.9355Q17.3828-59.7168 17.3828-60.6689Q17.3828-61.6211 18.1152-62.4023Q18.8477-63.1348 19.8486-63.1348Q20.8496-63.1348 21.582-62.4023L44.4336-39.5508Q45.2148-38.7695 46.3135-38.8184Q47.4121-38.8672 48.1934-39.5996Q48.9746-40.3809 49.0479-41.5039Q49.1211-42.627 48.3398-43.4082L28.9062-62.8418Q28.125-63.5742 28.125-64.5508Q28.125-65.5273 28.8574-66.2598Q29.6387-67.041 30.6152-67.041Q31.5918-67.041 32.3242-66.2598L59.1309-39.4531Q60.2051-38.4277 61.377-38.3789Q62.5488-38.3301 63.4277-39.209Q64.209-39.9902 64.4531-41.04Q64.6973-42.0898 64.0625-43.7012L59.375-56.4453Q58.9355-57.5684 59.3262-58.4717Q59.7168-59.375 60.5957-59.7656Q61.5723-60.2051 62.4268-59.7656Q63.2812-59.3262 63.8672-58.0566L72.6074-39.502Q77.1973-29.7363 75.7568-22.6318Q74.3164-15.5273 68.7012-9.86328Z"/>
  </g>
  <g id="Ultralight-S" transform="matrix(1 0 0 1 519.1 696)">
   <path d="M66.7381-8.62274Q73.0637-14.9025 74.1657-22.7112Q75.2678-30.5199 71.2341-38.9915L61.7874-58.6761Q61.2198-59.993 60.1776-60.9901Q58.5182-62.6495 56.3168-62.6442Q54.1153-62.6389 52.3758-60.8994Q51.2283-59.7527 50.9304-57.9514Q50.6325-56.1501 51.5602-54.0337L56.514-42.5667Q56.6566-42.2318 56.4651-42.0395Q56.2698-41.8442 56.0257-42.0883L30.6313-67.4789Q28.5988-69.5114 26.3554-69.5587Q24.1119-69.606 22.4007-67.8947Q20.6039-66.098 20.8206-63.7611Q18.8789-65.6097 16.5688-65.8283Q14.2586-66.0469 12.4344-64.1777Q10.569-62.3123 10.7193-59.8885Q10.8696-57.4646 12.6663-55.571Q10.2974-55.7915 8.51135-54.0054Q6.81381-52.3529 6.86417-50.0954Q6.91452-47.8378 8.93707-45.8153L12.8136-41.9388Q11.5997-42.0784 10.5255-41.6111Q9.45129-41.1438 8.6174-40.3107Q6.91986-38.6581 6.99501-36.4166Q7.07016-34.1751 9.09576-32.1487L31.5338-9.71069Q37.6549-3.58963 43.9419-1.81885Q50.2289-0.0480652 56.0745-1.92604Q61.9202-3.80402 66.7381-8.62274ZM65.2504-10.0449Q60.8215-5.616 55.4661-3.92952Q50.1106-2.24304 44.3802-3.92685Q38.6497-5.61066 33.0063-11.2541L10.6361-33.6243Q9.26819-34.996 9.10759-36.4479Q8.94699-37.8998 10.1822-39.1312Q11.3686-40.3214 12.9356-40.2531Q14.5027-40.1848 15.8737-38.8626L29.0215-25.7149Q29.5753-25.1572 30.0385-25.1621Q30.5016-25.1671 30.78-25.4456Q31.0616-25.7278 31.0665-26.1925Q31.0715-26.6571 30.5176-27.211L10.4431-47.2397Q9.11713-48.6076 8.93555-50.061Q8.75397-51.5144 9.98611-52.7466Q11.2213-53.9818 12.788-53.9139Q14.3547-53.846 15.6815-52.4773L34.343-33.8158Q34.9426-33.2619 35.3809-33.2653Q35.8192-33.2687 36.1465-33.5472Q36.4281-33.8737 36.4334-34.3159Q36.4388-34.758 35.8841-35.3119L14.2136-56.9832Q12.8418-58.3092 12.7056-59.9422Q12.5694-61.5753 13.8016-62.8113Q14.9422-63.9519 16.5108-63.7478Q18.0794-63.5437 19.4023-62.2208L41.1186-40.5045Q41.4909-40.1321 41.9765-39.999Q42.4622-39.8659 42.8352-40.2809Q43.2533-40.6532 43.1446-41.1407Q43.0359-41.6283 42.6186-42.0006L23.9113-60.7079Q22.5853-62.0758 22.517-63.62Q22.4487-65.1642 23.6351-66.3963Q24.8703-67.6315 26.3237-67.45Q27.7771-67.2684 29.1458-65.9416L54.9988-40.0887Q55.7098-39.3814 56.5636-39.4463Q57.4173-39.5111 58.0238-40.1169Q58.6235-40.6715 58.7543-41.3807Q58.8852-42.0898 58.5228-42.9291L53.4264-54.8561Q52.6237-56.6605 53.0369-58.086Q53.45-59.5116 54.8744-60.1746Q56.3499-60.8864 57.6813-60.1971Q59.0126-59.5078 59.8259-57.7843L69.2924-38.1393Q73.0194-30.4176 72.0104-23.1087Q71.0014-15.7997 65.2504-10.0449Z"/>
  </g>
 </g>
</svg>
