<?xml version="1.0" encoding="UTF-8"?>
<!--Generator: Apple Native CoreSVG 175-->
<!DOCTYPE svg
PUBLIC "-//W3C//DTD SVG 1.1//EN"
       "http://www.w3.org/Graphics/SVG/1.1/DTD/svg11.dtd">
<svg version="1.1" xmlns="http://www.w3.org/2000/svg" xmlns:xlink="http://www.w3.org/1999/xlink" width="3300" height="2200">
 <!--glyph: "uni1008E9.medium", point size: 100.0, font version: "17.1d1e1", template writer version: "65.1"-->
 <style>.multicolor-0:secondaryLabelColor {fill:#8A8A8E;opacity:1.0}
.multicolor-1:labelColor {fill:#212121;opacity:1.0}

.hierarchical-0:secondary {fill:#4D4D4D}
.hierarchical-1:primary {fill:#212121}

.SFSymbolsPreview212121 {fill:#212121;opacity:1.0}
.SFSymbolsPreview8A8A8E {fill:#8A8A8E;opacity:1.0}
</style>
 <g id="Notes">
  <rect height="2200" id="artboard" style="fill:white;opacity:1" width="3300" x="0" y="0"/>
  <line style="fill:none;stroke:black;opacity:1;stroke-width:0.5;" x1="263" x2="3036" y1="292" y2="292"/>
  <text style="stroke:none;fill:black;font-family:sans-serif;font-size:13;font-weight:bold;" transform="matrix(1 0 0 1 263 322)">Weight/Scale Variations</text>
  <text style="stroke:none;fill:black;font-family:sans-serif;font-size:13;text-anchor:middle;" transform="matrix(1 0 0 1 559.711 322)">Ultralight</text>
  <text style="stroke:none;fill:black;font-family:sans-serif;font-size:13;text-anchor:middle;" transform="matrix(1 0 0 1 856.422 322)">Thin</text>
  <text style="stroke:none;fill:black;font-family:sans-serif;font-size:13;text-anchor:middle;" transform="matrix(1 0 0 1 1153.13 322)">Light</text>
  <text style="stroke:none;fill:black;font-family:sans-serif;font-size:13;text-anchor:middle;" transform="matrix(1 0 0 1 1449.84 322)">Regular</text>
  <text style="stroke:none;fill:black;font-family:sans-serif;font-size:13;text-anchor:middle;" transform="matrix(1 0 0 1 1746.56 322)">Medium</text>
  <text style="stroke:none;fill:black;font-family:sans-serif;font-size:13;text-anchor:middle;" transform="matrix(1 0 0 1 2043.27 322)">Semibold</text>
  <text style="stroke:none;fill:black;font-family:sans-serif;font-size:13;text-anchor:middle;" transform="matrix(1 0 0 1 2339.98 322)">Bold</text>
  <text style="stroke:none;fill:black;font-family:sans-serif;font-size:13;text-anchor:middle;" transform="matrix(1 0 0 1 2636.69 322)">Heavy</text>
  <text style="stroke:none;fill:black;font-family:sans-serif;font-size:13;text-anchor:middle;" transform="matrix(1 0 0 1 2933.4 322)">Black</text>
  <line style="fill:none;stroke:black;opacity:1;stroke-width:0.5;" x1="263" x2="3036" y1="1903" y2="1903"/>
  <g transform="matrix(1 0 0 1 263 1933)">
   <path d="M9.24805 0.830078Q10.8691 0.830078 12.2949 0.214844Q13.7207-0.400391 14.8096-1.49414Q15.8984-2.58789 16.5186-4.01367Q17.1387-5.43945 17.1387-7.05078Q17.1387-8.66211 16.5186-10.0879Q15.8984-11.5137 14.8047-12.6074Q13.7109-13.7012 12.2852-14.3164Q10.8594-14.9316 9.23828-14.9316Q7.62695-14.9316 6.20117-14.3164Q4.77539-13.7012 3.69141-12.6074Q2.60742-11.5137 1.9873-10.0879Q1.36719-8.66211 1.36719-7.05078Q1.36719-5.43945 1.9873-4.01367Q2.60742-2.58789 3.69629-1.49414Q4.78516-0.400391 6.21094 0.214844Q7.63672 0.830078 9.24805 0.830078ZM9.24805-0.654297Q7.91992-0.654297 6.7627-1.14746Q5.60547-1.64062 4.73145-2.51953Q3.85742-3.39844 3.36426-4.56055Q2.87109-5.72266 2.87109-7.05078Q2.87109-8.37891 3.35938-9.54102Q3.84766-10.7031 4.72168-11.582Q5.5957-12.4609 6.75293-12.9541Q7.91016-13.4473 9.23828-13.4473Q10.5762-13.4473 11.7334-12.9541Q12.8906-12.4609 13.7695-11.582Q14.6484-10.7031 15.1465-9.54102Q15.6445-8.37891 15.6445-7.05078Q15.6445-5.72266 15.1514-4.56055Q14.6582-3.39844 13.7842-2.51953Q12.9102-1.64062 11.748-1.14746Q10.5859-0.654297 9.24805-0.654297ZM5.6543-7.05078Q5.6543-6.72852 5.85938-6.52832Q6.06445-6.32812 6.40625-6.32812L8.51562-6.32812L8.51562-4.20898Q8.51562-3.88672 8.71094-3.67676Q8.90625-3.4668 9.23828-3.4668Q9.56055-3.4668 9.77051-3.67676Q9.98047-3.88672 9.98047-4.20898L9.98047-6.32812L12.0898-6.32812Q12.4219-6.32812 12.627-6.52832Q12.832-6.72852 12.832-7.05078Q12.832-7.38281 12.627-7.58789Q12.4219-7.79297 12.0898-7.79297L9.98047-7.79297L9.98047-9.90234Q9.98047-10.2344 9.77051-10.4443Q9.56055-10.6543 9.23828-10.6543Q8.90625-10.6543 8.71094-10.4443Q8.51562-10.2344 8.51562-9.90234L8.51562-7.79297L6.40625-7.79297Q6.06445-7.79297 5.85938-7.58789Q5.6543-7.38281 5.6543-7.05078Z"/>
  </g>
  <g transform="matrix(1 0 0 1 281.867 1933)">
   <path d="M11.709 2.91016Q13.75 2.91016 15.5518 2.12891Q17.3535 1.34766 18.7305-0.0292969Q20.1074-1.40625 20.8887-3.20801Q21.6699-5.00977 21.6699-7.05078Q21.6699-9.0918 20.8887-10.8936Q20.1074-12.6953 18.7305-14.0723Q17.3535-15.4492 15.5469-16.2305Q13.7402-17.0117 11.6992-17.0117Q9.6582-17.0117 7.85645-16.2305Q6.05469-15.4492 4.68262-14.0723Q3.31055-12.6953 2.5293-10.8936Q1.74805-9.0918 1.74805-7.05078Q1.74805-5.00977 2.5293-3.20801Q3.31055-1.40625 4.6875-0.0292969Q6.06445 1.34766 7.86621 2.12891Q9.66797 2.91016 11.709 2.91016ZM11.709 1.25Q9.98047 1.25 8.47656 0.605469Q6.97266-0.0390625 5.83496-1.17676Q4.69727-2.31445 4.05762-3.81836Q3.41797-5.32227 3.41797-7.05078Q3.41797-8.7793 4.05762-10.2832Q4.69727-11.7871 5.83008-12.9297Q6.96289-14.0723 8.4668-14.7119Q9.9707-15.3516 11.6992-15.3516Q13.4277-15.3516 14.9316-14.7119Q16.4355-14.0723 17.5781-12.9297Q18.7207-11.7871 19.3652-10.2832Q20.0098-8.7793 20.0098-7.05078Q20.0098-5.32227 19.3701-3.81836Q18.7305-2.31445 17.5928-1.17676Q16.4551-0.0390625 14.9463 0.605469Q13.4375 1.25 11.709 1.25ZM7.17773-7.05078Q7.17773-6.69922 7.41211-6.47461Q7.64648-6.25 8.01758-6.25L10.8887-6.25L10.8887-3.36914Q10.8887-2.99805 11.1133-2.76855Q11.3379-2.53906 11.6895-2.53906Q12.0605-2.53906 12.29-2.76855Q12.5195-2.99805 12.5195-3.36914L12.5195-6.25L15.4004-6.25Q15.7715-6.25 16.001-6.47461Q16.2305-6.69922 16.2305-7.05078Q16.2305-7.42188 16.001-7.65137Q15.7715-7.88086 15.4004-7.88086L12.5195-7.88086L12.5195-10.752Q12.5195-11.1328 12.29-11.3623Q12.0605-11.5918 11.6895-11.5918Q11.3379-11.5918 11.1133-11.3574Q10.8887-11.123 10.8887-10.752L10.8887-7.88086L8.01758-7.88086Q7.63672-7.88086 7.40723-7.65137Q7.17773-7.42188 7.17773-7.05078Z"/>
  </g>
  <g transform="matrix(1 0 0 1 305.646 1933)">
   <path d="M14.9707 5.66406Q17.0605 5.66406 18.96 5.01465Q20.8594 4.36523 22.4512 3.19336Q24.043 2.02148 25.2197 0.429688Q26.3965-1.16211 27.0459-3.06641Q27.6953-4.9707 27.6953-7.05078Q27.6953-9.14062 27.0459-11.04Q26.3965-12.9395 25.2197-14.5312Q24.043-16.123 22.4512-17.2998Q20.8594-18.4766 18.9551-19.126Q17.0508-19.7754 14.9609-19.7754Q12.8711-19.7754 10.9717-19.126Q9.07227-18.4766 7.48535-17.2998Q5.89844-16.123 4.72168-14.5312Q3.54492-12.9395 2.90039-11.04Q2.25586-9.14062 2.25586-7.05078Q2.25586-4.9707 2.90527-3.06641Q3.55469-1.16211 4.72656 0.429688Q5.89844 2.02148 7.49023 3.19336Q9.08203 4.36523 10.9814 5.01465Q12.8809 5.66406 14.9707 5.66406ZM14.9707 3.84766Q13.1641 3.84766 11.5283 3.2959Q9.89258 2.74414 8.53516 1.74805Q7.17773 0.751953 6.17676-0.610352Q5.17578-1.97266 4.62891-3.6084Q4.08203-5.24414 4.08203-7.05078Q4.08203-8.86719 4.62891-10.5029Q5.17578-12.1387 6.17188-13.501Q7.16797-14.8633 8.52539-15.8594Q9.88281-16.8555 11.5186-17.4023Q13.1543-17.9492 14.9609-17.9492Q16.7773-17.9492 18.4131-17.4023Q20.0488-16.8555 21.4111-15.8594Q22.7734-14.8633 23.7695-13.501Q24.7656-12.1387 25.3174-10.5029Q25.8691-8.86719 25.8691-7.05078Q25.8789-5.24414 25.332-3.6084Q24.7852-1.97266 23.7842-0.610352Q22.7832 0.751953 21.4209 1.74805Q20.0586 2.74414 18.4229 3.2959Q16.7871 3.84766 14.9707 3.84766ZM9.19922-7.05078Q9.19922-6.66992 9.45801-6.4209Q9.7168-6.17188 10.1172-6.17188L14.0625-6.17188L14.0625-2.2168Q14.0625-1.81641 14.3115-1.55762Q14.5605-1.29883 14.9512-1.29883Q15.3516-1.29883 15.6104-1.55273Q15.8691-1.80664 15.8691-2.2168L15.8691-6.17188L19.8242-6.17188Q20.2246-6.17188 20.4785-6.4209Q20.7324-6.66992 20.7324-7.05078Q20.7324-7.46094 20.4785-7.71484Q20.2246-7.96875 19.8242-7.96875L15.8691-7.96875L15.8691-11.9141Q15.8691-12.3242 15.6104-12.583Q15.3516-12.8418 14.9512-12.8418Q14.5605-12.8418 14.3115-12.583Q14.0625-12.3242 14.0625-11.9141L14.0625-7.96875L10.1172-7.96875Q9.70703-7.96875 9.45312-7.71484Q9.19922-7.46094 9.19922-7.05078Z"/>
  </g>
  <text style="stroke:none;fill:black;font-family:sans-serif;font-size:13;font-weight:bold;" transform="matrix(1 0 0 1 263 1953)">Design Variations</text>
  <text style="stroke:none;fill:black;font-family:sans-serif;font-size:13;" transform="matrix(1 0 0 1 263 1971)">Symbols are supported in up to nine weights and three scales.</text>
  <text style="stroke:none;fill:black;font-family:sans-serif;font-size:13;" transform="matrix(1 0 0 1 263 1989)">For optimal layout with text and other symbols, vertically align</text>
  <text style="stroke:none;fill:black;font-family:sans-serif;font-size:13;" transform="matrix(1 0 0 1 263 2007)">symbols with the adjacent text.</text>
  <line style="fill:none;stroke:#00AEEF;stroke-width:0.5;opacity:1.0;" x1="776" x2="776" y1="1919" y2="1933"/>
  <g transform="matrix(1 0 0 1 776 1933)">
   <path d="M3.31055 0.15625Q3.70117 0.15625 3.91602-0.00976562Q4.13086-0.175781 4.26758-0.585938L5.52734-4.0332L11.2891-4.0332L12.5488-0.585938Q12.6855-0.175781 12.9004-0.00976562Q13.1152 0.15625 13.4961 0.15625Q13.8867 0.15625 14.1162-0.0585938Q14.3457-0.273438 14.3457-0.644531Q14.3457-0.869141 14.2383-1.17188L9.6582-13.3691Q9.48242-13.8184 9.17969-14.043Q8.87695-14.2676 8.4082-14.2676Q7.5-14.2676 7.17773-13.3789L2.59766-1.16211Q2.49023-0.859375 2.49023-0.634766Q2.49023-0.263672 2.70996-0.0537109Q2.92969 0.15625 3.31055 0.15625ZM6.00586-5.51758L8.37891-12.0898L8.42773-12.0898L10.8008-5.51758Z"/>
  </g>
  <line style="fill:none;stroke:#00AEEF;stroke-width:0.5;opacity:1.0;" x1="793.197" x2="793.197" y1="1919" y2="1933"/>
  <text style="stroke:none;fill:black;font-family:sans-serif;font-size:13;font-weight:bold;" transform="matrix(1 0 0 1 776 1953)">Margins</text>
  <text style="stroke:none;fill:black;font-family:sans-serif;font-size:13;" transform="matrix(1 0 0 1 776 1971)">Leading and trailing margins on the left and right side of each symbol</text>
  <text style="stroke:none;fill:black;font-family:sans-serif;font-size:13;" transform="matrix(1 0 0 1 776 1989)">can be adjusted by modifying the x-location of the margin guidelines.</text>
  <text style="stroke:none;fill:black;font-family:sans-serif;font-size:13;" transform="matrix(1 0 0 1 776 2007)">Modifications are automatically applied proportionally to all</text>
  <text style="stroke:none;fill:black;font-family:sans-serif;font-size:13;" transform="matrix(1 0 0 1 776 2025)">scales and weights.</text>
  <g transform="matrix(1 0 0 1 1289 1933)">
   <path d="M2.8418 1.86523L4.54102 3.57422Q5.18555 4.22852 5.90332 4.17969Q6.62109 4.13086 7.31445 3.35938L18.0078-8.42773L17.041-9.4043L6.42578 2.27539Q6.16211 2.57812 5.89355 2.61719Q5.625 2.65625 5.27344 2.30469L4.10156 1.14258Q3.75 0.791016 3.79395 0.522461Q3.83789 0.253906 4.14062-0.0195312L15.6152-10.8203L14.6387-11.7871L3.04688-0.898438Q2.30469-0.214844 2.25098 0.498047Q2.19727 1.21094 2.8418 1.86523ZM9.25781-16.3281Q8.94531-16.0254 8.90625-15.6348Q8.86719-15.2441 9.04297-14.9512Q9.21875-14.6777 9.55566-14.541Q9.89258-14.4043 10.3809-14.5215Q11.4746-14.7754 12.5977-14.7314Q13.7207-14.6875 14.7949-13.9844L14.209-12.5293Q13.9551-11.9043 14.0674-11.4404Q14.1797-10.9766 14.5801-10.5664L16.875-8.25195Q17.2363-7.88086 17.5781-7.82227Q17.9199-7.76367 18.3398-7.8418L19.4043-8.03711L20.0684-7.36328L20.0293-6.80664Q20-6.43555 20.1221-6.12305Q20.2441-5.81055 20.6055-5.44922L21.3672-4.70703Q21.7285-4.3457 22.1533-4.33105Q22.5781-4.31641 22.9297-4.66797L25.8398-7.58789Q26.1914-7.93945 26.1816-8.35449Q26.1719-8.76953 25.8105-9.13086L25.0391-9.89258Q24.6875-10.2539 24.3799-10.3857Q24.0723-10.5176 23.7109-10.4883L23.1348-10.4395L22.4902-11.0742L22.7344-12.1973Q22.832-12.6172 22.6953-12.9834Q22.5586-13.3496 22.1191-13.7891L19.9219-15.9766Q18.6719-17.2168 17.2607-17.8369Q15.8496-18.457 14.4189-18.4814Q12.9883-18.5059 11.665-17.959Q10.3418-17.4121 9.25781-16.3281ZM10.752-15.957Q11.6602-16.6211 12.7002-16.9043Q13.7402-17.1875 14.8047-17.085Q15.8691-16.9824 16.8701-16.5137Q17.8711-16.0449 18.7012-15.2051L21.1328-12.793Q21.3086-12.6172 21.3525-12.4512Q21.3965-12.2852 21.3379-12.0312L21.0156-10.5469L22.5195-9.0625L23.5059-9.12109Q23.6914-9.13086 23.7891-9.09668Q23.8867-9.0625 24.0332-8.91602L24.6094-8.33984L22.168-5.89844L21.5918-6.47461Q21.4453-6.62109 21.4062-6.71875Q21.3672-6.81641 21.377-7.01172L21.4453-7.98828L19.9512-9.47266L18.4277-9.21875Q18.1836-9.16992 18.042-9.2041Q17.9004-9.23828 17.7148-9.41406L15.7129-11.416Q15.5176-11.5918 15.4932-11.7529Q15.4688-11.9141 15.5859-12.1875L16.4648-14.2773Q15.293-15.3711 13.8281-15.791Q12.3633-16.2109 10.8398-15.7617Q10.7227-15.7324 10.6885-15.8057Q10.6543-15.8789 10.752-15.957Z"/>
  </g>
  <text style="stroke:none;fill:black;font-family:sans-serif;font-size:13;font-weight:bold;" transform="matrix(1 0 0 1 1289 1953)">Exporting</text>
  <text style="stroke:none;fill:black;font-family:sans-serif;font-size:13;" transform="matrix(1 0 0 1 1289 1971)">Symbols should be outlined when exporting to ensure the</text>
  <text style="stroke:none;fill:black;font-family:sans-serif;font-size:13;" transform="matrix(1 0 0 1 1289 1989)">design is preserved when submitting to Xcode.</text>
  <text id="template-version" style="stroke:none;fill:black;font-family:sans-serif;font-size:13;text-anchor:end;" transform="matrix(1 0 0 1 3036 1933)">Template v.3.0</text>
  <text style="stroke:none;fill:black;font-family:sans-serif;font-size:13;text-anchor:end;" transform="matrix(1 0 0 1 3036 1951)">Requires Xcode 13 or greater</text>
  <text id="descriptive-name" style="stroke:none;fill:black;font-family:sans-serif;font-size:13;text-anchor:end;" transform="matrix(1 0 0 1 3036 1969)">Generated from list.star</text>
  <text style="stroke:none;fill:black;font-family:sans-serif;font-size:13;text-anchor:end;" transform="matrix(1 0 0 1 3036 1987)">Typeset at 100 points</text>
  <text style="stroke:none;fill:black;font-family:sans-serif;font-size:13;" transform="matrix(1 0 0 1 263 726)">Small</text>
  <text style="stroke:none;fill:black;font-family:sans-serif;font-size:13;" transform="matrix(1 0 0 1 263 1156)">Medium</text>
  <text style="stroke:none;fill:black;font-family:sans-serif;font-size:13;" transform="matrix(1 0 0 1 263 1586)">Large</text>
 </g>
 <g id="Guides">
  <g id="H-reference" style="fill:#27AAE1;stroke:none;" transform="matrix(1 0 0 1 339 696)">
   <path d="M0.993347 0L3.6377 0L29.3282-67.1326L30.0301-67.1326L30.0301-70.459L28.1227-70.459ZM11.6882-24.4797L46.9818-24.4797L46.2311-26.7288L12.4382-26.7288ZM55.1193 0L57.7637 0L30.6381-70.459L29.4327-70.459L29.4327-67.1326Z"/>
  </g>
  <line id="Baseline-S" style="fill:none;stroke:#27AAE1;opacity:1;stroke-width:0.5;" x1="263" x2="3036" y1="696" y2="696"/>
  <line id="Capline-S" style="fill:none;stroke:#27AAE1;opacity:1;stroke-width:0.5;" x1="263" x2="3036" y1="625.541" y2="625.541"/>
  <g id="H-reference" style="fill:#27AAE1;stroke:none;" transform="matrix(1 0 0 1 339 1126)">
   <path d="M0.993347 0L3.6377 0L29.3282-67.1326L30.0301-67.1326L30.0301-70.459L28.1227-70.459ZM11.6882-24.4797L46.9818-24.4797L46.2311-26.7288L12.4382-26.7288ZM55.1193 0L57.7637 0L30.6381-70.459L29.4327-70.459L29.4327-67.1326Z"/>
  </g>
  <line id="Baseline-M" style="fill:none;stroke:#27AAE1;opacity:1;stroke-width:0.5;" x1="263" x2="3036" y1="1126" y2="1126"/>
  <line id="Capline-M" style="fill:none;stroke:#27AAE1;opacity:1;stroke-width:0.5;" x1="263" x2="3036" y1="1055.54" y2="1055.54"/>
  <g id="H-reference" style="fill:#27AAE1;stroke:none;" transform="matrix(1 0 0 1 339 1556)">
   <path d="M0.993347 0L3.6377 0L29.3282-67.1326L30.0301-67.1326L30.0301-70.459L28.1227-70.459ZM11.6882-24.4797L46.9818-24.4797L46.2311-26.7288L12.4382-26.7288ZM55.1193 0L57.7637 0L30.6381-70.459L29.4327-70.459L29.4327-67.1326Z"/>
  </g>
  <line id="Baseline-L" style="fill:none;stroke:#27AAE1;opacity:1;stroke-width:0.5;" x1="263" x2="3036" y1="1556" y2="1556"/>
  <line id="Capline-L" style="fill:none;stroke:#27AAE1;opacity:1;stroke-width:0.5;" x1="263" x2="3036" y1="1485.54" y2="1485.54"/>
  <line id="left-margin-Ultralight-S" style="fill:none;stroke:#00AEEF;stroke-width:0.5;opacity:1.0;" x1="513.207" x2="513.207" y1="600.785" y2="720.121"/>
  <line id="right-margin-Ultralight-S" style="fill:none;stroke:#00AEEF;stroke-width:0.5;opacity:1.0;" x1="606.215" x2="606.215" y1="600.785" y2="720.121"/>
  <line id="left-margin-Regular-S" style="fill:none;stroke:#00AEEF;stroke-width:0.5;opacity:1.0;" x1="1401.14" x2="1401.14" y1="600.785" y2="720.121"/>
  <line id="right-margin-Regular-S" style="fill:none;stroke:#00AEEF;stroke-width:0.5;opacity:1.0;" x1="1498.55" x2="1498.55" y1="600.785" y2="720.121"/>
  <line id="left-margin-Black-S" style="fill:none;stroke:#00AEEF;stroke-width:0.5;opacity:1.0;" x1="2879.69" x2="2879.69" y1="600.785" y2="720.121"/>
  <line id="right-margin-Black-S" style="fill:none;stroke:#00AEEF;stroke-width:0.5;opacity:1.0;" x1="2987.11" x2="2987.11" y1="600.785" y2="720.121"/>
 </g>
 <g id="Symbols">
  <g id="Black-S" transform="matrix(1 0 0 1 2879.69 696)">
   <path class="multicolor-0:secondaryLabelColor hierarchical-0:secondary SFSymbolsPreview8A8A8E" d="M43.7012-28.8574L91.3086-28.8574Q93.9453-28.8574 95.8008-30.6885Q97.6562-32.5195 97.6562-35.2051Q97.6562-37.8418 95.8252-39.6973Q93.9941-41.5527 91.3086-41.5527L43.7012-41.5527Q41.0645-41.5527 39.209-39.7217Q37.3535-37.8906 37.3535-35.2051Q37.3535-32.5684 39.1846-30.7129Q41.0156-28.8574 43.7012-28.8574ZM43.7012-3.56445L91.3086-3.56445Q93.9453-3.56445 95.8008-5.39551Q97.6562-7.22656 97.6562-9.91211Q97.6562-12.5488 95.8252-14.4043Q93.9941-16.2598 91.3086-16.2598L43.7012-16.2598Q41.0645-16.2598 39.209-14.4287Q37.3535-12.5977 37.3535-9.91211Q37.3535-7.27539 39.1846-5.41992Q41.0156-3.56445 43.7012-3.56445ZM43.7012-54.1504L91.3086-54.1504Q93.9453-54.1504 95.8008-55.9814Q97.6562-57.8125 97.6562-60.498Q97.6562-63.1348 95.8252-64.9902Q93.9941-66.8457 91.3086-66.8457L43.7012-66.8457Q41.0645-66.8457 39.209-65.0146Q37.3535-63.1836 37.3535-60.498Q37.3535-57.8613 39.1846-56.0059Q41.0156-54.1504 43.7012-54.1504Z"/>
   <path class="multicolor-1:labelColor hierarchical-1:primary SFSymbolsPreview212121" d="M16.2109-1.41602L18.9941-3.4668L21.7285-1.41602Q23.291-0.292969 24.6826-1.26953Q26.0742-2.24609 25.4883-4.00391L24.3652-7.42188L27.1484-9.47266Q28.5645-10.5469 28.0762-12.1338Q27.5879-13.7207 25.7812-13.7207L22.3633-13.7207L21.1914-17.3828Q20.7031-19.043 19.0186-19.0186Q17.334-18.9941 16.7969-17.3828L15.625-13.7207L12.1582-13.7207Q10.3516-13.7207 9.86328-12.1338Q9.375-10.5469 10.791-9.47266L13.623-7.37305L12.5-4.00391Q11.9141-2.24609 13.3057-1.26953Q14.6973-0.292969 16.2109-1.41602ZM16.2109-52.002L18.9941-54.0527L21.7285-52.002Q23.291-50.8789 24.6826-51.8555Q26.0742-52.832 25.4883-54.5898L24.3652-58.0078L27.1484-60.0586Q28.5645-61.1328 28.0762-62.7197Q27.5879-64.3066 25.7812-64.3066L22.3633-64.3066L21.1914-67.9688Q20.7031-69.6289 19.0186-69.6045Q17.334-69.5801 16.7969-67.9688L15.625-64.3066L12.1582-64.3066Q10.3516-64.3066 9.86328-62.7197Q9.375-61.1328 10.791-60.0586L13.623-57.959L12.5-54.5898Q11.9141-52.832 13.3057-51.8555Q14.6973-50.8789 16.2109-52.002ZM16.2109-26.709L18.9941-28.7598L21.7285-26.709Q23.291-25.5859 24.6826-26.5625Q26.0742-27.5391 25.4883-29.2969L24.3652-32.7148L27.1484-34.7656Q28.5645-35.8398 28.0762-37.4268Q27.5879-39.0137 25.7812-39.0137L22.3633-39.0137L21.1914-42.6758Q20.7031-44.3359 19.0186-44.3115Q17.334-44.2871 16.7969-42.6758L15.625-39.0137L12.1582-39.0137Q10.3516-39.0137 9.86328-37.4268Q9.375-35.8398 10.791-34.7656L13.623-32.666L12.5-29.2969Q11.9141-27.5391 13.3057-26.5625Q14.6973-25.5859 16.2109-26.709Z"/>
  </g>
  <g id="Regular-S" transform="matrix(1 0 0 1 1401.14 696)">
   <path class="multicolor-0:secondaryLabelColor hierarchical-0:secondary SFSymbolsPreview8A8A8E" d="M36.8652-31.6895L84.1309-31.6895Q85.5957-31.6895 86.6211-32.7148Q87.6465-33.7402 87.6465-35.2051Q87.6465-36.6699 86.6211-37.6953Q85.5957-38.7207 84.1309-38.7207L36.8652-38.7207Q35.4004-38.7207 34.375-37.6953Q33.3496-36.6699 33.3496-35.2051Q33.3496-33.7402 34.375-32.7148Q35.4004-31.6895 36.8652-31.6895ZM36.8652-8.39844L84.1309-8.39844Q85.5957-8.39844 86.6211-9.42383Q87.6465-10.4492 87.6465-11.9141Q87.6465-13.3789 86.6211-14.4043Q85.5957-15.4297 84.1309-15.4297L36.8652-15.4297Q35.4004-15.4297 34.375-14.4043Q33.3496-13.3789 33.3496-11.9141Q33.3496-10.4492 34.375-9.42383Q35.4004-8.39844 36.8652-8.39844ZM36.8652-54.9805L84.1309-54.9805Q85.5957-54.9805 86.6211-56.0059Q87.6465-57.0312 87.6465-58.4961Q87.6465-59.9609 86.6211-60.9863Q85.5957-62.0117 84.1309-62.0117L36.8652-62.0117Q35.4004-62.0117 34.375-60.9863Q33.3496-59.9609 33.3496-58.4961Q33.3496-57.0312 34.375-56.0059Q35.4004-54.9805 36.8652-54.9805Z"/>
   <path class="multicolor-1:labelColor hierarchical-1:primary SFSymbolsPreview212121" d="M14.5508-5.32227L17.9199-7.8125L21.1914-5.32227Q22.1191-4.58984 22.9248-5.15137Q23.7305-5.71289 23.3887-6.78711L22.0703-10.791L25.3418-13.2812Q26.2207-13.916 25.9521-14.7949Q25.6836-15.6738 24.6094-15.6738L20.459-15.6738L19.1406-19.9707Q18.8477-20.8984 17.8955-20.8984Q16.9434-20.8984 16.6504-19.9707L15.332-15.6738L11.1328-15.6738Q10.1074-15.6738 9.83887-14.7949Q9.57031-13.916 10.4004-13.2812L13.7207-10.791L12.4512-6.78711Q12.0605-5.71289 12.8418-5.17578Q13.623-4.63867 14.5508-5.32227ZM14.5508-51.9043L17.9199-54.3945L21.1914-51.9043Q22.1191-51.1719 22.9248-51.7334Q23.7305-52.2949 23.3887-53.3691L22.0703-57.373L25.3418-59.8633Q26.2207-60.498 25.9521-61.377Q25.6836-62.2559 24.6094-62.2559L20.459-62.2559L19.1406-66.5527Q18.8477-67.4805 17.8955-67.4805Q16.9434-67.4805 16.6504-66.5527L15.332-62.2559L11.1328-62.2559Q10.1074-62.2559 9.83887-61.377Q9.57031-60.498 10.4004-59.8633L13.7207-57.373L12.4512-53.3691Q12.0605-52.2949 12.8418-51.7578Q13.623-51.2207 14.5508-51.9043ZM14.5508-28.6621L17.9199-31.1523L21.1914-28.6621Q22.1191-27.9297 22.9248-28.4912Q23.7305-29.0527 23.3887-30.127L22.0703-34.1309L25.3418-36.6211Q26.2207-37.2559 25.9521-38.1348Q25.6836-39.0137 24.6094-39.0137L20.459-39.0137L19.1406-43.3105Q18.8477-44.2383 17.8955-44.2383Q16.9434-44.2383 16.6504-43.3105L15.332-39.0137L11.1328-39.0137Q10.1074-39.0137 9.83887-38.1348Q9.57031-37.2559 10.4004-36.6211L13.7207-34.1309L12.4512-30.127Q12.0605-29.0527 12.8418-28.5156Q13.623-27.9785 14.5508-28.6621Z"/>
  </g>
  <g id="Ultralight-S" transform="matrix(1 0 0 1 513.207 696)">
   <path class="multicolor-0:secondaryLabelColor hierarchical-0:secondary SFSymbolsPreview8A8A8E" d="M30.0087-34.0965L82.1327-34.0965Q82.6439-34.0965 82.943-34.3952Q83.242-34.6939 83.242-35.2051Q83.242-35.7162 82.943-36.0149Q82.6439-36.3136 82.1327-36.3136L30.0087-36.3136Q29.4968-36.3136 29.1981-36.0149Q28.8994-35.7162 28.8994-35.2051Q28.8994-34.6939 29.1981-34.3952Q29.4968-34.0965 30.0087-34.0965ZM30.0087-11.7134L82.1327-11.7134Q82.6439-11.7134 82.943-12.0121Q83.242-12.3108 83.242-12.7769Q83.242-13.2881 82.943-13.5868Q82.6439-13.8855 82.1327-13.8855L30.0087-13.8855Q29.4968-13.8855 29.1981-13.5868Q28.8994-13.2881 28.8994-12.7769Q28.8994-12.3108 29.1981-12.0121Q29.4968-11.7134 30.0087-11.7134ZM30.0087-56.5247L82.1327-56.5247Q82.6439-56.5247 82.943-56.8233Q83.242-57.122 83.242-57.6332Q83.242-58.0994 82.943-58.3981Q82.6439-58.6967 82.1327-58.6967L30.0087-58.6967Q29.4968-58.6967 29.1981-58.3981Q28.8994-58.0994 28.8994-57.6332Q28.8994-57.122 29.1981-56.8233Q29.4968-56.5247 30.0087-56.5247Z"/>
   <path class="multicolor-1:labelColor hierarchical-1:primary SFSymbolsPreview212121" d="M12.6892-7.86514L15.5586-9.99222L18.3762-7.86514Q18.8499-7.54166 19.1559-7.76253Q19.4618-7.9834 19.3016-8.4671L18.1648-11.9263L21.0281-14.0076Q21.4073-14.2792 21.2978-14.6587Q21.1884-15.0383 20.7497-15.0383L17.2348-15.0383L16.053-18.6989Q15.9416-19.0369 15.5796-19.0594Q15.2176-19.0819 15.1062-18.6989L13.9244-15.0383L10.3157-15.0383Q9.88007-15.0383 9.79347-14.6587Q9.70688-14.2792 10.0372-14.0076L12.9036-11.9263L11.8156-8.4671Q11.6516-7.9834 11.956-7.76405Q12.2604-7.54471 12.6892-7.86514ZM12.6892-52.6764L15.5586-54.8035L18.3762-52.6764Q18.8499-52.3979 19.1559-52.5963Q19.4618-52.7946 19.3016-53.2784L18.1648-56.7375L21.0281-58.8646Q21.4073-59.1354 21.2978-59.4921Q21.1884-59.8488 20.7497-59.8488L17.2348-59.8488L16.053-63.5559Q15.9416-63.8474 15.5796-63.8702Q15.2176-63.8931 15.1062-63.5559L13.9244-59.8488L10.3157-59.8488Q9.88007-59.8488 9.79347-59.4921Q9.70688-59.1354 10.0372-58.8646L12.9036-56.7375L11.8156-53.2784Q11.6066-52.7946 11.9335-52.5982Q12.2604-52.4017 12.6892-52.6764ZM12.6892-30.3421L15.5586-32.4692L18.3762-30.3421Q18.8499-29.9728 19.1559-30.2166Q19.4618-30.4604 19.3016-30.899L18.1648-34.3582L21.0281-36.4845Q21.4073-36.7561 21.2978-37.1128Q21.1884-37.4695 20.7497-37.4695L17.2348-37.4695L16.053-41.1766Q15.9416-41.5138 15.5796-41.5138Q15.2176-41.5138 15.1062-41.1766L13.9244-37.4695L10.3157-37.4695Q9.88007-37.4695 9.79347-37.1128Q9.70688-36.7561 10.0372-36.4845L12.9036-34.3582L11.8156-30.899Q11.6516-30.4604 11.956-30.241Q12.2604-30.0217 12.6892-30.3421Z"/>
  </g>
 </g>
</svg>
