<?xml version="1.0" encoding="UTF-8"?>
<!--Generator: Apple Native CoreSVG 175-->
<!DOCTYPE svg
PUBLIC "-//W3C//DTD SVG 1.1//EN"
       "http://www.w3.org/Graphics/SVG/1.1/DTD/svg11.dtd">
<svg version="1.1" xmlns="http://www.w3.org/2000/svg" xmlns:xlink="http://www.w3.org/1999/xlink" width="3300" height="2200">
 <!--glyph: "uni100D74.medium", point size: 100.0, font version: "17.1d1e1", template writer version: "65.1"-->
 <g id="Notes">
  <rect height="2200" id="artboard" style="fill:white;opacity:1" width="3300" x="0" y="0"/>
  <line style="fill:none;stroke:black;opacity:1;stroke-width:0.5;" x1="263" x2="3036" y1="292" y2="292"/>
  <text style="stroke:none;fill:black;font-family:sans-serif;font-size:13;font-weight:bold;" transform="matrix(1 0 0 1 263 322)">Weight/Scale Variations</text>
  <text style="stroke:none;fill:black;font-family:sans-serif;font-size:13;text-anchor:middle;" transform="matrix(1 0 0 1 559.711 322)">Ultralight</text>
  <text style="stroke:none;fill:black;font-family:sans-serif;font-size:13;text-anchor:middle;" transform="matrix(1 0 0 1 856.422 322)">Thin</text>
  <text style="stroke:none;fill:black;font-family:sans-serif;font-size:13;text-anchor:middle;" transform="matrix(1 0 0 1 1153.13 322)">Light</text>
  <text style="stroke:none;fill:black;font-family:sans-serif;font-size:13;text-anchor:middle;" transform="matrix(1 0 0 1 1449.84 322)">Regular</text>
  <text style="stroke:none;fill:black;font-family:sans-serif;font-size:13;text-anchor:middle;" transform="matrix(1 0 0 1 1746.56 322)">Medium</text>
  <text style="stroke:none;fill:black;font-family:sans-serif;font-size:13;text-anchor:middle;" transform="matrix(1 0 0 1 2043.27 322)">Semibold</text>
  <text style="stroke:none;fill:black;font-family:sans-serif;font-size:13;text-anchor:middle;" transform="matrix(1 0 0 1 2339.98 322)">Bold</text>
  <text style="stroke:none;fill:black;font-family:sans-serif;font-size:13;text-anchor:middle;" transform="matrix(1 0 0 1 2636.69 322)">Heavy</text>
  <text style="stroke:none;fill:black;font-family:sans-serif;font-size:13;text-anchor:middle;" transform="matrix(1 0 0 1 2933.4 322)">Black</text>
  <line style="fill:none;stroke:black;opacity:1;stroke-width:0.5;" x1="263" x2="3036" y1="1903" y2="1903"/>
  <g transform="matrix(1 0 0 1 263 1933)">
   <path d="M9.24805 0.830078Q10.8691 0.830078 12.2949 0.214844Q13.7207-0.400391 14.8096-1.49414Q15.8984-2.58789 16.5186-4.01367Q17.1387-5.43945 17.1387-7.05078Q17.1387-8.66211 16.5186-10.0879Q15.8984-11.5137 14.8047-12.6074Q13.7109-13.7012 12.2852-14.3164Q10.8594-14.9316 9.23828-14.9316Q7.62695-14.9316 6.20117-14.3164Q4.77539-13.7012 3.69141-12.6074Q2.60742-11.5137 1.9873-10.0879Q1.36719-8.66211 1.36719-7.05078Q1.36719-5.43945 1.9873-4.01367Q2.60742-2.58789 3.69629-1.49414Q4.78516-0.400391 6.21094 0.214844Q7.63672 0.830078 9.24805 0.830078ZM9.24805-0.654297Q7.91992-0.654297 6.7627-1.14746Q5.60547-1.64062 4.73145-2.51953Q3.85742-3.39844 3.36426-4.56055Q2.87109-5.72266 2.87109-7.05078Q2.87109-8.37891 3.35938-9.54102Q3.84766-10.7031 4.72168-11.582Q5.5957-12.4609 6.75293-12.9541Q7.91016-13.4473 9.23828-13.4473Q10.5762-13.4473 11.7334-12.9541Q12.8906-12.4609 13.7695-11.582Q14.6484-10.7031 15.1465-9.54102Q15.6445-8.37891 15.6445-7.05078Q15.6445-5.72266 15.1514-4.56055Q14.6582-3.39844 13.7842-2.51953Q12.9102-1.64062 11.748-1.14746Q10.5859-0.654297 9.24805-0.654297ZM5.6543-7.05078Q5.6543-6.72852 5.85938-6.52832Q6.06445-6.32812 6.40625-6.32812L8.51562-6.32812L8.51562-4.20898Q8.51562-3.88672 8.71094-3.67676Q8.90625-3.4668 9.23828-3.4668Q9.56055-3.4668 9.77051-3.67676Q9.98047-3.88672 9.98047-4.20898L9.98047-6.32812L12.0898-6.32812Q12.4219-6.32812 12.627-6.52832Q12.832-6.72852 12.832-7.05078Q12.832-7.38281 12.627-7.58789Q12.4219-7.79297 12.0898-7.79297L9.98047-7.79297L9.98047-9.90234Q9.98047-10.2344 9.77051-10.4443Q9.56055-10.6543 9.23828-10.6543Q8.90625-10.6543 8.71094-10.4443Q8.51562-10.2344 8.51562-9.90234L8.51562-7.79297L6.40625-7.79297Q6.06445-7.79297 5.85938-7.58789Q5.6543-7.38281 5.6543-7.05078Z"/>
  </g>
  <g transform="matrix(1 0 0 1 281.867 1933)">
   <path d="M11.709 2.91016Q13.75 2.91016 15.5518 2.12891Q17.3535 1.34766 18.7305-0.0292969Q20.1074-1.40625 20.8887-3.20801Q21.6699-5.00977 21.6699-7.05078Q21.6699-9.0918 20.8887-10.8936Q20.1074-12.6953 18.7305-14.0723Q17.3535-15.4492 15.5469-16.2305Q13.7402-17.0117 11.6992-17.0117Q9.6582-17.0117 7.85645-16.2305Q6.05469-15.4492 4.68262-14.0723Q3.31055-12.6953 2.5293-10.8936Q1.74805-9.0918 1.74805-7.05078Q1.74805-5.00977 2.5293-3.20801Q3.31055-1.40625 4.6875-0.0292969Q6.06445 1.34766 7.86621 2.12891Q9.66797 2.91016 11.709 2.91016ZM11.709 1.25Q9.98047 1.25 8.47656 0.605469Q6.97266-0.0390625 5.83496-1.17676Q4.69727-2.31445 4.05762-3.81836Q3.41797-5.32227 3.41797-7.05078Q3.41797-8.7793 4.05762-10.2832Q4.69727-11.7871 5.83008-12.9297Q6.96289-14.0723 8.4668-14.7119Q9.9707-15.3516 11.6992-15.3516Q13.4277-15.3516 14.9316-14.7119Q16.4355-14.0723 17.5781-12.9297Q18.7207-11.7871 19.3652-10.2832Q20.0098-8.7793 20.0098-7.05078Q20.0098-5.32227 19.3701-3.81836Q18.7305-2.31445 17.5928-1.17676Q16.4551-0.0390625 14.9463 0.605469Q13.4375 1.25 11.709 1.25ZM7.17773-7.05078Q7.17773-6.69922 7.41211-6.47461Q7.64648-6.25 8.01758-6.25L10.8887-6.25L10.8887-3.36914Q10.8887-2.99805 11.1133-2.76855Q11.3379-2.53906 11.6895-2.53906Q12.0605-2.53906 12.29-2.76855Q12.5195-2.99805 12.5195-3.36914L12.5195-6.25L15.4004-6.25Q15.7715-6.25 16.001-6.47461Q16.2305-6.69922 16.2305-7.05078Q16.2305-7.42188 16.001-7.65137Q15.7715-7.88086 15.4004-7.88086L12.5195-7.88086L12.5195-10.752Q12.5195-11.1328 12.29-11.3623Q12.0605-11.5918 11.6895-11.5918Q11.3379-11.5918 11.1133-11.3574Q10.8887-11.123 10.8887-10.752L10.8887-7.88086L8.01758-7.88086Q7.63672-7.88086 7.40723-7.65137Q7.17773-7.42188 7.17773-7.05078Z"/>
  </g>
  <g transform="matrix(1 0 0 1 305.646 1933)">
   <path d="M14.9707 5.66406Q17.0605 5.66406 18.96 5.01465Q20.8594 4.36523 22.4512 3.19336Q24.043 2.02148 25.2197 0.429688Q26.3965-1.16211 27.0459-3.06641Q27.6953-4.9707 27.6953-7.05078Q27.6953-9.14062 27.0459-11.04Q26.3965-12.9395 25.2197-14.5312Q24.043-16.123 22.4512-17.2998Q20.8594-18.4766 18.9551-19.126Q17.0508-19.7754 14.9609-19.7754Q12.8711-19.7754 10.9717-19.126Q9.07227-18.4766 7.48535-17.2998Q5.89844-16.123 4.72168-14.5312Q3.54492-12.9395 2.90039-11.04Q2.25586-9.14062 2.25586-7.05078Q2.25586-4.9707 2.90527-3.06641Q3.55469-1.16211 4.72656 0.429688Q5.89844 2.02148 7.49023 3.19336Q9.08203 4.36523 10.9814 5.01465Q12.8809 5.66406 14.9707 5.66406ZM14.9707 3.84766Q13.1641 3.84766 11.5283 3.2959Q9.89258 2.74414 8.53516 1.74805Q7.17773 0.751953 6.17676-0.610352Q5.17578-1.97266 4.62891-3.6084Q4.08203-5.24414 4.08203-7.05078Q4.08203-8.86719 4.62891-10.5029Q5.17578-12.1387 6.17188-13.501Q7.16797-14.8633 8.52539-15.8594Q9.88281-16.8555 11.5186-17.4023Q13.1543-17.9492 14.9609-17.9492Q16.7773-17.9492 18.4131-17.4023Q20.0488-16.8555 21.4111-15.8594Q22.7734-14.8633 23.7695-13.501Q24.7656-12.1387 25.3174-10.5029Q25.8691-8.86719 25.8691-7.05078Q25.8789-5.24414 25.332-3.6084Q24.7852-1.97266 23.7842-0.610352Q22.7832 0.751953 21.4209 1.74805Q20.0586 2.74414 18.4229 3.2959Q16.7871 3.84766 14.9707 3.84766ZM9.19922-7.05078Q9.19922-6.66992 9.45801-6.4209Q9.7168-6.17188 10.1172-6.17188L14.0625-6.17188L14.0625-2.2168Q14.0625-1.81641 14.3115-1.55762Q14.5605-1.29883 14.9512-1.29883Q15.3516-1.29883 15.6104-1.55273Q15.8691-1.80664 15.8691-2.2168L15.8691-6.17188L19.8242-6.17188Q20.2246-6.17188 20.4785-6.4209Q20.7324-6.66992 20.7324-7.05078Q20.7324-7.46094 20.4785-7.71484Q20.2246-7.96875 19.8242-7.96875L15.8691-7.96875L15.8691-11.9141Q15.8691-12.3242 15.6104-12.583Q15.3516-12.8418 14.9512-12.8418Q14.5605-12.8418 14.3115-12.583Q14.0625-12.3242 14.0625-11.9141L14.0625-7.96875L10.1172-7.96875Q9.70703-7.96875 9.45312-7.71484Q9.19922-7.46094 9.19922-7.05078Z"/>
  </g>
  <text style="stroke:none;fill:black;font-family:sans-serif;font-size:13;font-weight:bold;" transform="matrix(1 0 0 1 263 1953)">Design Variations</text>
  <text style="stroke:none;fill:black;font-family:sans-serif;font-size:13;" transform="matrix(1 0 0 1 263 1971)">Symbols are supported in up to nine weights and three scales.</text>
  <text style="stroke:none;fill:black;font-family:sans-serif;font-size:13;" transform="matrix(1 0 0 1 263 1989)">For optimal layout with text and other symbols, vertically align</text>
  <text style="stroke:none;fill:black;font-family:sans-serif;font-size:13;" transform="matrix(1 0 0 1 263 2007)">symbols with the adjacent text.</text>
  <line style="fill:none;stroke:#00AEEF;stroke-width:0.5;opacity:1.0;" x1="776" x2="776" y1="1919" y2="1933"/>
  <g transform="matrix(1 0 0 1 776 1933)">
   <path d="M3.31055 0.15625Q3.70117 0.15625 3.91602-0.00976562Q4.13086-0.175781 4.26758-0.585938L5.52734-4.0332L11.2891-4.0332L12.5488-0.585938Q12.6855-0.175781 12.9004-0.00976562Q13.1152 0.15625 13.4961 0.15625Q13.8867 0.15625 14.1162-0.0585938Q14.3457-0.273438 14.3457-0.644531Q14.3457-0.869141 14.2383-1.17188L9.6582-13.3691Q9.48242-13.8184 9.17969-14.043Q8.87695-14.2676 8.4082-14.2676Q7.5-14.2676 7.17773-13.3789L2.59766-1.16211Q2.49023-0.859375 2.49023-0.634766Q2.49023-0.263672 2.70996-0.0537109Q2.92969 0.15625 3.31055 0.15625ZM6.00586-5.51758L8.37891-12.0898L8.42773-12.0898L10.8008-5.51758Z"/>
  </g>
  <line style="fill:none;stroke:#00AEEF;stroke-width:0.5;opacity:1.0;" x1="793.197" x2="793.197" y1="1919" y2="1933"/>
  <text style="stroke:none;fill:black;font-family:sans-serif;font-size:13;font-weight:bold;" transform="matrix(1 0 0 1 776 1953)">Margins</text>
  <text style="stroke:none;fill:black;font-family:sans-serif;font-size:13;" transform="matrix(1 0 0 1 776 1971)">Leading and trailing margins on the left and right side of each symbol</text>
  <text style="stroke:none;fill:black;font-family:sans-serif;font-size:13;" transform="matrix(1 0 0 1 776 1989)">can be adjusted by modifying the x-location of the margin guidelines.</text>
  <text style="stroke:none;fill:black;font-family:sans-serif;font-size:13;" transform="matrix(1 0 0 1 776 2007)">Modifications are automatically applied proportionally to all</text>
  <text style="stroke:none;fill:black;font-family:sans-serif;font-size:13;" transform="matrix(1 0 0 1 776 2025)">scales and weights.</text>
  <g transform="matrix(1 0 0 1 1289 1933)">
   <path d="M2.8418 1.86523L4.54102 3.57422Q5.18555 4.22852 5.90332 4.17969Q6.62109 4.13086 7.31445 3.35938L18.0078-8.42773L17.041-9.4043L6.42578 2.27539Q6.16211 2.57812 5.89355 2.61719Q5.625 2.65625 5.27344 2.30469L4.10156 1.14258Q3.75 0.791016 3.79395 0.522461Q3.83789 0.253906 4.14062-0.0195312L15.6152-10.8203L14.6387-11.7871L3.04688-0.898438Q2.30469-0.214844 2.25098 0.498047Q2.19727 1.21094 2.8418 1.86523ZM9.25781-16.3281Q8.94531-16.0254 8.90625-15.6348Q8.86719-15.2441 9.04297-14.9512Q9.21875-14.6777 9.55566-14.541Q9.89258-14.4043 10.3809-14.5215Q11.4746-14.7754 12.5977-14.7314Q13.7207-14.6875 14.7949-13.9844L14.209-12.5293Q13.9551-11.9043 14.0674-11.4404Q14.1797-10.9766 14.5801-10.5664L16.875-8.25195Q17.2363-7.88086 17.5781-7.82227Q17.9199-7.76367 18.3398-7.8418L19.4043-8.03711L20.0684-7.36328L20.0293-6.80664Q20-6.43555 20.1221-6.12305Q20.2441-5.81055 20.6055-5.44922L21.3672-4.70703Q21.7285-4.3457 22.1533-4.33105Q22.5781-4.31641 22.9297-4.66797L25.8398-7.58789Q26.1914-7.93945 26.1816-8.35449Q26.1719-8.76953 25.8105-9.13086L25.0391-9.89258Q24.6875-10.2539 24.3799-10.3857Q24.0723-10.5176 23.7109-10.4883L23.1348-10.4395L22.4902-11.0742L22.7344-12.1973Q22.832-12.6172 22.6953-12.9834Q22.5586-13.3496 22.1191-13.7891L19.9219-15.9766Q18.6719-17.2168 17.2607-17.8369Q15.8496-18.457 14.4189-18.4814Q12.9883-18.5059 11.665-17.959Q10.3418-17.4121 9.25781-16.3281ZM10.752-15.957Q11.6602-16.6211 12.7002-16.9043Q13.7402-17.1875 14.8047-17.085Q15.8691-16.9824 16.8701-16.5137Q17.8711-16.0449 18.7012-15.2051L21.1328-12.793Q21.3086-12.6172 21.3525-12.4512Q21.3965-12.2852 21.3379-12.0312L21.0156-10.5469L22.5195-9.0625L23.5059-9.12109Q23.6914-9.13086 23.7891-9.09668Q23.8867-9.0625 24.0332-8.91602L24.6094-8.33984L22.168-5.89844L21.5918-6.47461Q21.4453-6.62109 21.4062-6.71875Q21.3672-6.81641 21.377-7.01172L21.4453-7.98828L19.9512-9.47266L18.4277-9.21875Q18.1836-9.16992 18.042-9.2041Q17.9004-9.23828 17.7148-9.41406L15.7129-11.416Q15.5176-11.5918 15.4932-11.7529Q15.4688-11.9141 15.5859-12.1875L16.4648-14.2773Q15.293-15.3711 13.8281-15.791Q12.3633-16.2109 10.8398-15.7617Q10.7227-15.7324 10.6885-15.8057Q10.6543-15.8789 10.752-15.957Z"/>
  </g>
  <text style="stroke:none;fill:black;font-family:sans-serif;font-size:13;font-weight:bold;" transform="matrix(1 0 0 1 1289 1953)">Exporting</text>
  <text style="stroke:none;fill:black;font-family:sans-serif;font-size:13;" transform="matrix(1 0 0 1 1289 1971)">Symbols should be outlined when exporting to ensure the</text>
  <text style="stroke:none;fill:black;font-family:sans-serif;font-size:13;" transform="matrix(1 0 0 1 1289 1989)">design is preserved when submitting to Xcode.</text>
  <text id="template-version" style="stroke:none;fill:black;font-family:sans-serif;font-size:13;text-anchor:end;" transform="matrix(1 0 0 1 3036 1933)">Template v.3.0</text>
  <text style="stroke:none;fill:black;font-family:sans-serif;font-size:13;text-anchor:end;" transform="matrix(1 0 0 1 3036 1951)">Requires Xcode 13 or greater</text>
  <text id="descriptive-name" style="stroke:none;fill:black;font-family:sans-serif;font-size:13;text-anchor:end;" transform="matrix(1 0 0 1 3036 1969)">Generated from globe.europe.africa.fill</text>
  <text style="stroke:none;fill:black;font-family:sans-serif;font-size:13;text-anchor:end;" transform="matrix(1 0 0 1 3036 1987)">Typeset at 100 points</text>
  <text style="stroke:none;fill:black;font-family:sans-serif;font-size:13;" transform="matrix(1 0 0 1 263 726)">Small</text>
  <text style="stroke:none;fill:black;font-family:sans-serif;font-size:13;" transform="matrix(1 0 0 1 263 1156)">Medium</text>
  <text style="stroke:none;fill:black;font-family:sans-serif;font-size:13;" transform="matrix(1 0 0 1 263 1586)">Large</text>
 </g>
 <g id="Guides">
  <g id="H-reference" style="fill:#27AAE1;stroke:none;" transform="matrix(1 0 0 1 339 696)">
   <path d="M0.993347 0L3.6377 0L29.3282-67.1326L30.0301-67.1326L30.0301-70.459L28.1227-70.459ZM11.6882-24.4797L46.9818-24.4797L46.2311-26.7288L12.4382-26.7288ZM55.1193 0L57.7637 0L30.6381-70.459L29.4327-70.459L29.4327-67.1326Z"/>
  </g>
  <line id="Baseline-S" style="fill:none;stroke:#27AAE1;opacity:1;stroke-width:0.5;" x1="263" x2="3036" y1="696" y2="696"/>
  <line id="Capline-S" style="fill:none;stroke:#27AAE1;opacity:1;stroke-width:0.5;" x1="263" x2="3036" y1="625.541" y2="625.541"/>
  <g id="H-reference" style="fill:#27AAE1;stroke:none;" transform="matrix(1 0 0 1 339 1126)">
   <path d="M0.993347 0L3.6377 0L29.3282-67.1326L30.0301-67.1326L30.0301-70.459L28.1227-70.459ZM11.6882-24.4797L46.9818-24.4797L46.2311-26.7288L12.4382-26.7288ZM55.1193 0L57.7637 0L30.6381-70.459L29.4327-70.459L29.4327-67.1326Z"/>
  </g>
  <line id="Baseline-M" style="fill:none;stroke:#27AAE1;opacity:1;stroke-width:0.5;" x1="263" x2="3036" y1="1126" y2="1126"/>
  <line id="Capline-M" style="fill:none;stroke:#27AAE1;opacity:1;stroke-width:0.5;" x1="263" x2="3036" y1="1055.54" y2="1055.54"/>
  <g id="H-reference" style="fill:#27AAE1;stroke:none;" transform="matrix(1 0 0 1 339 1556)">
   <path d="M0.993347 0L3.6377 0L29.3282-67.1326L30.0301-67.1326L30.0301-70.459L28.1227-70.459ZM11.6882-24.4797L46.9818-24.4797L46.2311-26.7288L12.4382-26.7288ZM55.1193 0L57.7637 0L30.6381-70.459L29.4327-70.459L29.4327-67.1326Z"/>
  </g>
  <line id="Baseline-L" style="fill:none;stroke:#27AAE1;opacity:1;stroke-width:0.5;" x1="263" x2="3036" y1="1556" y2="1556"/>
  <line id="Capline-L" style="fill:none;stroke:#27AAE1;opacity:1;stroke-width:0.5;" x1="263" x2="3036" y1="1485.54" y2="1485.54"/>
  <line id="left-margin-Ultralight-S" style="fill:none;stroke:#00AEEF;stroke-width:0.5;opacity:1.0;" x1="515.649" x2="515.649" y1="600.785" y2="720.121"/>
  <line id="right-margin-Ultralight-S" style="fill:none;stroke:#00AEEF;stroke-width:0.5;opacity:1.0;" x1="603.773" x2="603.773" y1="600.785" y2="720.121"/>
  <line id="left-margin-Regular-S" style="fill:none;stroke:#00AEEF;stroke-width:0.5;opacity:1.0;" x1="1403.58" x2="1403.58" y1="600.785" y2="720.121"/>
  <line id="right-margin-Regular-S" style="fill:none;stroke:#00AEEF;stroke-width:0.5;opacity:1.0;" x1="1496.11" x2="1496.11" y1="600.785" y2="720.121"/>
  <line id="left-margin-Black-S" style="fill:none;stroke:#00AEEF;stroke-width:0.5;opacity:1.0;" x1="2884.57" x2="2884.57" y1="600.785" y2="720.121"/>
  <line id="right-margin-Black-S" style="fill:none;stroke:#00AEEF;stroke-width:0.5;opacity:1.0;" x1="2982.23" x2="2982.23" y1="600.785" y2="720.121"/>
 </g>
 <g id="Symbols">
  <g id="Black-S" transform="matrix(1 0 0 1 2884.57 696)">
   <path d="M49.6582-8.20312Q52.2461-8.20312 54.541-9.81445Q56.8359-11.4258 58.7158-13.7207Q60.5957-16.0156 61.8896-18.0664Q63.1836-20.1172 63.7207-20.9961Q65.1367-23.3887 64.9414-25.5371Q64.7461-27.6855 64.7461-28.9551Q64.7461-29.4434 65.6982-30.4688Q66.6504-31.4941 67.5781-32.9102Q68.5059-34.3262 68.5059-35.9375Q68.5059-36.9141 67.3584-37.8662Q66.2109-38.8184 64.7461-39.7461Q63.2812-40.6738 62.1338-41.5527Q60.9863-42.4316 60.9863-43.2129Q60.9863-43.75 61.4746-44.4336Q61.9629-45.1172 62.4023-45.1172Q62.9883-45.1172 64.0137-44.1895Q65.0391-43.2617 66.2354-42.0166Q67.4316-40.7715 68.5547-39.8438Q69.6777-38.916 70.459-38.916Q71.5332-38.916 71.582-39.9414Q71.6309-40.9668 72.2656-40.9668Q72.8516-40.9668 73.4619-39.2822Q74.0723-37.5977 75.1221-35.0586Q76.1719-32.5195 78.0029-29.8584Q79.834-27.1973 82.8613-25.2441Q84.8145-25.9766 86.4746-28.6865Q88.1348-31.3965 88.1348-35.2051Q88.1348-43.3105 85.0586-50.4395Q81.9824-57.5684 76.5869-62.9639Q71.1914-68.3594 64.0625-71.4355Q56.9336-74.5117 48.8281-74.5117Q43.8965-74.5117 40.3809-73.3398Q36.8652-72.168 35.0098-69.9463Q33.1543-67.7246 33.1543-64.5996Q33.1543-61.5723 32.2266-59.8145Q31.2988-58.0566 30.3467-56.7139Q29.3945-55.3711 29.3945-53.5645Q29.3945-52.2949 30.2246-51.5625Q31.0547-50.8301 32.4707-50.8301Q34.0332-50.8301 35.376-51.8066Q36.7188-52.7832 37.8418-53.7598Q38.9648-54.7363 39.8438-54.7363Q40.4297-54.7363 40.9668-54.248Q41.5039-53.7598 42.3096-53.2715Q43.1152-52.7832 44.4336-52.7832Q44.9707-52.7832 45.5322-53.0518Q46.0938-53.3203 46.2891-54.1504Q46.3867-54.5898 46.6797-54.834Q46.9727-55.0781 47.3633-55.0781Q48.5352-55.0781 49.4629-54.3457Q50.3906-53.6133 50.9521-52.71Q51.5137-51.8066 51.5137-51.3184Q51.5137-50.4395 51.0986-49.8535Q50.6836-49.2676 50-49.2676Q49.6094-49.2676 48.291-49.585Q46.9727-49.9023 45.1904-50.1953Q43.4082-50.4883 41.5527-50.4883Q37.3047-50.4883 33.8623-48.8525Q30.4199-47.2168 28.3936-44.4336Q26.3672-41.6504 26.3672-38.1836Q26.3672-33.5449 29.0283-30.9326Q31.6895-28.3203 36.4258-28.3203Q38.916-28.3203 40.5273-26.8555Q42.1387-25.3906 42.1387-23.0957Q42.1387-21.1426 42.1875-18.6035Q42.2363-16.0645 42.8467-13.6963Q43.457-11.3281 45.0439-9.76562Q46.6309-8.20312 49.6582-8.20312ZM60.3516-55.2734Q59.7168-55.2734 59.2529-55.0049Q58.7891-54.7363 57.666-54.7363Q56.5918-54.7363 55.8594-55.4688Q55.127-56.2012 55.127-57.2754Q55.127-60.4492 60.1074-60.4492Q62.1094-60.4492 63.4766-59.4482Q64.8438-58.4473 64.8438-56.9824Q64.8438-56.0059 64.2334-55.3223Q63.623-54.6387 62.793-54.6387Q61.6699-54.6387 61.1816-54.9561Q60.6934-55.2734 60.3516-55.2734ZM48.8281 6.78711Q57.5195 6.78711 65.1123 3.51562Q72.7051 0.244141 78.4912-5.54199Q84.2773-11.3281 87.5488-18.9209Q90.8203-26.5137 90.8203-35.2051Q90.8203-43.8965 87.5488-51.4893Q84.2773-59.082 78.4912-64.8682Q72.7051-70.6543 65.1123-73.9258Q57.5195-77.1973 48.8281-77.1973Q40.1367-77.1973 32.5439-73.9258Q24.9512-70.6543 19.165-64.8682Q13.3789-59.082 10.1074-51.4893Q6.83594-43.8965 6.83594-35.2051Q6.83594-26.5137 10.1074-18.9209Q13.3789-11.3281 19.165-5.54199Q24.9512 0.244141 32.5439 3.51562Q40.1367 6.78711 48.8281 6.78711ZM48.8281-3.95508Q42.3828-3.95508 36.7188-6.39648Q31.0547-8.83789 26.7578-13.1348Q22.4609-17.4316 20.0195-23.0957Q17.5781-28.7598 17.5781-35.2051Q17.5781-41.6504 20.0195-47.3145Q22.4609-52.9785 26.7578-57.2754Q31.0547-61.5723 36.7188-64.0137Q42.3828-66.4551 48.8281-66.4551Q55.2734-66.4551 60.9375-64.0137Q66.6016-61.5723 70.8984-57.2754Q75.1953-52.9785 77.6367-47.3145Q80.0781-41.6504 80.0781-35.2051Q80.0781-28.7598 77.6367-23.0957Q75.1953-17.4316 70.8984-13.1348Q66.6016-8.83789 60.9375-6.39648Q55.2734-3.95508 48.8281-3.95508Z"/>
  </g>
  <g id="Regular-S" transform="matrix(1 0 0 1 1403.58 696)">
   <path d="M47.4609-6.10352Q50.1465-6.10352 52.5391-7.8125Q54.9316-9.52148 56.8848-11.9141Q58.8379-14.3066 60.2051-16.5039Q61.5723-18.7012 62.1582-19.6289Q63.6719-22.0703 63.4521-24.292Q63.2324-26.5137 63.2324-27.9297Q63.2324-28.5645 64.2578-29.7363Q65.2832-30.9082 66.2842-32.4219Q67.2852-33.9355 67.2852-35.5469Q67.2852-36.7676 66.1133-37.9395Q64.9414-39.1113 63.3789-40.1367Q61.8164-41.1621 60.6201-42.0166Q59.4238-42.8711 59.4238-43.5547Q59.4238-44.4336 59.9854-45.0684Q60.5469-45.7031 61.2305-45.7031Q61.8652-45.7031 62.8662-44.8975Q63.8672-44.0918 65.0635-43.042Q66.2598-41.9922 67.3828-41.1865Q68.5059-40.3809 69.3848-40.3809Q70.5566-40.3809 70.9473-41.04Q71.3379-41.6992 71.9238-41.6992Q72.6562-41.6992 73.1934-39.9658Q73.7305-38.2324 74.4873-35.8154Q75.2441-33.3984 76.6113-31.2012Q77.9785-29.0039 80.3223-28.0762Q81.7383-29.6387 82.5195-31.3232Q83.3008-33.0078 83.3008-35.2539Q83.3008-42.8223 80.3955-49.5117Q77.4902-56.2012 72.3633-61.3281Q67.2363-66.4551 60.5225-69.3848Q53.8086-72.3145 46.1914-72.3145Q40.1367-72.3145 36.6455-70.9229Q33.1543-69.5312 31.665-67.5537Q30.1758-65.5762 30.1758-63.8184Q30.1758-61.377 29.1504-59.9365Q28.125-58.4961 27.0996-57.373Q26.0742-56.25 26.0742-54.7363Q26.0742-53.2715 27.0508-52.3682Q28.0273-51.4648 29.6875-51.4648Q31.9336-51.4648 32.959-52.6855Q33.9844-53.9062 34.5947-55.127Q35.2051-56.3477 36.2305-56.3477Q37.0117-56.2988 37.8662-55.6396Q38.7207-54.9805 39.8193-54.2969Q40.918-53.6133 42.4316-53.6133Q43.457-53.6133 43.9209-54.2236Q44.3848-54.834 44.4336-55.7617Q44.4336-56.1035 44.6045-56.2744Q44.7754-56.4453 45.0684-56.4453Q46.2891-56.4453 47.4365-55.6885Q48.584-54.9316 49.3164-53.9062Q50.0488-52.8809 50.0488-52.0996Q50.0488-50.8789 49.6338-50.1221Q49.2188-49.3652 48.5352-49.3652Q47.6562-49.3652 46.0938-49.8535Q44.5312-50.3418 42.5781-50.8057Q40.625-51.2695 38.7207-51.2695Q34.375-51.2695 30.7617-49.4629Q27.1484-47.6562 25-44.6289Q22.8516-41.6016 22.8516-37.9395Q22.8516-33.1543 25.5615-30.4932Q28.2715-27.832 33.2031-27.832Q36.1328-27.832 38.0371-26.0742Q39.9414-24.3164 39.9414-21.6309Q39.9414-19.4824 39.9902-16.8457Q40.0391-14.209 40.625-11.7432Q41.2109-9.27734 42.7979-7.69043Q44.3848-6.10352 47.4609-6.10352ZM57.1777-58.3008Q56.1523-58.3008 55.5176-57.9346Q54.8828-57.5684 53.9551-57.5684Q53.0273-57.5684 52.4414-58.1299Q51.8555-58.6914 51.8555-59.6191Q51.8555-62.5488 56.8848-62.5488Q58.9355-62.5488 60.3027-61.6211Q61.6699-60.6934 61.6699-59.3262Q61.6699-58.5449 61.2305-58.0078Q60.791-57.4707 60.1562-57.4707Q59.082-57.4707 58.4473-57.8857Q57.8125-58.3008 57.1777-58.3008ZM46.2402 4.15039Q54.3457 4.15039 61.4746 1.07422Q68.6035-2.00195 74.0479-7.4707Q79.4922-12.9395 82.5928-20.0684Q85.6934-27.1973 85.6934-35.2539Q85.6934-43.3105 82.5928-50.4395Q79.4922-57.5684 74.0234-63.0371Q68.5547-68.5059 61.4258-71.582Q54.2969-74.6582 46.1914-74.6582Q38.1348-74.6582 31.0059-71.582Q23.877-68.5059 18.457-63.0371Q13.0371-57.5684 9.93652-50.4395Q6.83594-43.3105 6.83594-35.2539Q6.83594-27.1973 9.93652-20.0684Q13.0371-12.9395 18.4814-7.4707Q23.9258-2.00195 31.0547 1.07422Q38.1836 4.15039 46.2402 4.15039ZM46.2402-1.70898Q39.4043-1.70898 33.3496-4.3457Q27.2949-6.98242 22.6562-11.6211Q18.0176-16.2598 15.3809-22.3389Q12.7441-28.418 12.7441-35.2539Q12.7441-42.0898 15.3564-48.1689Q17.9688-54.248 22.6074-58.8867Q27.2461-63.5254 33.3008-66.1621Q39.3555-68.7988 46.1914-68.7988Q53.0762-68.7988 59.1309-66.1621Q65.1855-63.5254 69.8486-58.8867Q74.5117-54.248 77.1484-48.1689Q79.7852-42.0898 79.7852-35.2539Q79.7852-28.418 77.1484-22.3389Q74.5117-16.2598 69.873-11.6211Q65.2344-6.98242 59.1797-4.3457Q53.125-1.70898 46.2402-1.70898Z"/>
  </g>
  <g id="Ultralight-S" transform="matrix(1 0 0 1 515.649 696)">
   <path d="M47.4609-6.73904Q49.9649-6.73904 52.2667-8.40263Q54.5685-10.0662 56.4762-12.4134Q58.3839-14.7606 59.7057-16.89Q61.0275-19.0193 61.6585-19.9921Q62.9906-22.2069 62.7937-24.3149Q62.5969-26.4229 62.5969-27.9297Q62.5969-28.9276 63.5994-30.0087Q64.6019-31.0898 65.6258-32.4219Q66.6496-33.754 66.6496-35.5469Q66.6496-36.9492 65.4549-38.0074Q64.2601-39.0656 62.6976-39.9094Q61.1351-40.7532 59.9617-41.5852Q58.7883-42.4171 58.7883-43.4181Q58.7883-44.4336 59.5085-45.3861Q60.2287-46.3387 61.2305-46.3387Q61.956-46.3387 62.9799-45.533Q64.0038-44.7273 65.1318-43.6775Q66.2598-42.6277 67.3599-41.8221Q68.4601-41.0164 69.3848-41.0164Q70.4659-41.0164 70.652-41.6756Q70.8382-42.3347 71.5149-42.3347Q72.3381-42.3347 73.0114-40.715Q73.6847-39.0953 74.4415-36.7916Q75.1984-34.4879 76.2932-32.3135Q77.388-30.1392 79.0504-29.0298Q79.6043-30.0018 79.9313-31.7093Q80.2582-33.4167 80.2582-35.2539Q80.2582-42.3683 77.5574-48.8762Q74.8566-55.3841 69.9795-60.511Q65.1024-65.638 58.5018-68.5677Q51.9012-71.4973 44.0575-71.4516Q40.0459-71.4066 37.0316-70.7413Q34.0172-70.076 32.3463-68.5753Q30.6755-67.0746 30.6755-64.5447Q30.6755-61.8309 29.6047-60.2318Q28.5339-58.6327 27.4632-57.4867Q26.3924-56.3408 26.3924-54.8729Q26.3924-53.6804 27.1191-52.9358Q27.8458-52.1912 29.0062-52.1912Q31.1165-52.1912 32.0736-53.344Q33.0307-54.4968 33.8226-55.6492Q34.6146-56.8016 36.2305-56.8016Q37.2841-56.7986 38.1615-56.2756Q39.0388-55.7526 39.8193-55.2505Q40.5998-54.7485 41.478-54.7485Q42.231-54.7485 42.6495-55.0636Q43.0679-55.3787 43.2526-55.8075Q43.5707-56.3759 43.7645-56.683Q43.9583-56.9901 44.4778-56.9901Q45.7443-56.9901 47.1642-56.1878Q48.584-55.3856 49.5663-54.2469Q50.5486-53.1082 50.5486-52.0996Q50.5486-50.8789 50.0881-49.8043Q49.6277-48.7297 48.5352-48.7297Q47.6105-48.7297 46.0026-49.3542Q44.3947-49.9786 42.4644-50.6241Q40.5342-51.2695 38.7207-51.2695Q34.5566-51.2695 31.1024-49.3946Q27.6482-47.5197 25.5676-44.4698Q23.4871-41.42 23.4871-37.9395Q23.4871-33.4267 26.0384-30.9471Q28.5896-28.4676 33.2031-28.4676Q36.3602-28.4676 38.4686-26.5282Q40.5769-24.5888 40.5769-21.6309Q40.5769-19.4824 40.6258-16.9365Q40.6746-14.3906 41.2151-12.0609Q41.7557-9.73129 43.2064-8.23517Q44.6571-6.73904 47.4609-6.73904ZM56.633-58.3466Q55.6526-58.3466 55.0861-58.0257Q54.5197-57.7049 53.6827-57.7049Q52.8458-57.7049 52.3052-58.2436Q51.7647-58.7822 51.7647-59.5734Q51.7647-62.2307 56.385-62.2307Q58.2092-62.2307 59.4627-61.3712Q60.7162-60.5118 60.7162-59.2804Q60.7162-58.5907 60.3222-58.099Q59.9281-57.6073 59.3391-57.6073Q58.3557-57.6073 57.7663-57.9769Q57.177-58.3466 56.633-58.3466ZM44.0605 1.97067Q51.757 1.97067 58.4774-0.92392Q65.1978-3.81851 70.3468-8.9695Q75.4959-14.1205 78.3924-20.8405Q81.2889-27.5604 81.2889-35.2539Q81.2889-42.9474 78.3924-49.6674Q75.4959-56.3873 70.3453-61.5383Q65.1947-66.6893 58.4743-69.5839Q51.754-72.4785 44.0575-72.4785Q36.364-72.4785 29.6211-69.5839Q22.8783-66.6893 17.7532-61.5383Q12.6282-56.3873 9.73206-49.6674Q6.83594-42.9474 6.83594-35.2539Q6.83594-27.5604 9.73206-20.8405Q12.6282-14.1205 17.7547-8.9695Q22.8813-3.81851 29.6242-0.92392Q36.367 1.97067 44.0605 1.97067ZM44.0605-0.164795Q36.8156-0.164795 30.4661-2.8923Q24.1165-5.61981 19.2734-10.463Q14.4302-15.3061 11.7027-21.6576Q8.97522-28.009 8.97522-35.2539Q8.97522-42.4988 11.7008-48.8503Q14.4264-55.2017 19.2696-60.0449Q24.1127-64.888 30.4626-67.6155Q36.8126-70.343 44.0575-70.343Q51.3054-70.343 57.655-67.6155Q64.0045-64.888 68.8496-60.0449Q73.6946-55.2017 76.4221-48.8503Q79.1496-42.4988 79.1496-35.2539Q79.1496-28.009 76.4221-21.6576Q73.6946-15.3061 68.8515-10.463Q64.0083-5.61981 57.6584-2.8923Q51.3084-0.164795 44.0605-0.164795Z"/>
  </g>
 </g>
</svg>
