<?xml version="1.0" encoding="UTF-8"?>
<!--Generator: Apple Native CoreSVG 175-->
<!DOCTYPE svg
PUBLIC "-//W3C//DTD SVG 1.1//EN"
       "http://www.w3.org/Graphics/SVG/1.1/DTD/svg11.dtd">
<svg version="1.1" xmlns="http://www.w3.org/2000/svg" xmlns:xlink="http://www.w3.org/1999/xlink" width="3300" height="2200">
 <!--glyph: "uni1001AA.medium", point size: 100.0, font version: "17.1d1e1", template writer version: "65.1"-->
 <g id="Notes">
  <rect height="2200" id="artboard" style="fill:white;opacity:1" width="3300" x="0" y="0"/>
  <line style="fill:none;stroke:black;opacity:1;stroke-width:0.5;" x1="263" x2="3036" y1="292" y2="292"/>
  <text style="stroke:none;fill:black;font-family:sans-serif;font-size:13;font-weight:bold;" transform="matrix(1 0 0 1 263 322)">Weight/Scale Variations</text>
  <text style="stroke:none;fill:black;font-family:sans-serif;font-size:13;text-anchor:middle;" transform="matrix(1 0 0 1 559.711 322)">Ultralight</text>
  <text style="stroke:none;fill:black;font-family:sans-serif;font-size:13;text-anchor:middle;" transform="matrix(1 0 0 1 856.422 322)">Thin</text>
  <text style="stroke:none;fill:black;font-family:sans-serif;font-size:13;text-anchor:middle;" transform="matrix(1 0 0 1 1153.13 322)">Light</text>
  <text style="stroke:none;fill:black;font-family:sans-serif;font-size:13;text-anchor:middle;" transform="matrix(1 0 0 1 1449.84 322)">Regular</text>
  <text style="stroke:none;fill:black;font-family:sans-serif;font-size:13;text-anchor:middle;" transform="matrix(1 0 0 1 1746.56 322)">Medium</text>
  <text style="stroke:none;fill:black;font-family:sans-serif;font-size:13;text-anchor:middle;" transform="matrix(1 0 0 1 2043.27 322)">Semibold</text>
  <text style="stroke:none;fill:black;font-family:sans-serif;font-size:13;text-anchor:middle;" transform="matrix(1 0 0 1 2339.98 322)">Bold</text>
  <text style="stroke:none;fill:black;font-family:sans-serif;font-size:13;text-anchor:middle;" transform="matrix(1 0 0 1 2636.69 322)">Heavy</text>
  <text style="stroke:none;fill:black;font-family:sans-serif;font-size:13;text-anchor:middle;" transform="matrix(1 0 0 1 2933.4 322)">Black</text>
  <line style="fill:none;stroke:black;opacity:1;stroke-width:0.5;" x1="263" x2="3036" y1="1903" y2="1903"/>
  <g transform="matrix(1 0 0 1 263 1933)">
   <path d="M9.24805 0.830078Q10.8691 0.830078 12.2949 0.214844Q13.7207-0.400391 14.8096-1.49414Q15.8984-2.58789 16.5186-4.01367Q17.1387-5.43945 17.1387-7.05078Q17.1387-8.66211 16.5186-10.0879Q15.8984-11.5137 14.8047-12.6074Q13.7109-13.7012 12.2852-14.3164Q10.8594-14.9316 9.23828-14.9316Q7.62695-14.9316 6.20117-14.3164Q4.77539-13.7012 3.69141-12.6074Q2.60742-11.5137 1.9873-10.0879Q1.36719-8.66211 1.36719-7.05078Q1.36719-5.43945 1.9873-4.01367Q2.60742-2.58789 3.69629-1.49414Q4.78516-0.400391 6.21094 0.214844Q7.63672 0.830078 9.24805 0.830078ZM9.24805-0.654297Q7.91992-0.654297 6.7627-1.14746Q5.60547-1.64062 4.73145-2.51953Q3.85742-3.39844 3.36426-4.56055Q2.87109-5.72266 2.87109-7.05078Q2.87109-8.37891 3.35938-9.54102Q3.84766-10.7031 4.72168-11.582Q5.5957-12.4609 6.75293-12.9541Q7.91016-13.4473 9.23828-13.4473Q10.5762-13.4473 11.7334-12.9541Q12.8906-12.4609 13.7695-11.582Q14.6484-10.7031 15.1465-9.54102Q15.6445-8.37891 15.6445-7.05078Q15.6445-5.72266 15.1514-4.56055Q14.6582-3.39844 13.7842-2.51953Q12.9102-1.64062 11.748-1.14746Q10.5859-0.654297 9.24805-0.654297ZM5.6543-7.05078Q5.6543-6.72852 5.85938-6.52832Q6.06445-6.32812 6.40625-6.32812L8.51562-6.32812L8.51562-4.20898Q8.51562-3.88672 8.71094-3.67676Q8.90625-3.4668 9.23828-3.4668Q9.56055-3.4668 9.77051-3.67676Q9.98047-3.88672 9.98047-4.20898L9.98047-6.32812L12.0898-6.32812Q12.4219-6.32812 12.627-6.52832Q12.832-6.72852 12.832-7.05078Q12.832-7.38281 12.627-7.58789Q12.4219-7.79297 12.0898-7.79297L9.98047-7.79297L9.98047-9.90234Q9.98047-10.2344 9.77051-10.4443Q9.56055-10.6543 9.23828-10.6543Q8.90625-10.6543 8.71094-10.4443Q8.51562-10.2344 8.51562-9.90234L8.51562-7.79297L6.40625-7.79297Q6.06445-7.79297 5.85938-7.58789Q5.6543-7.38281 5.6543-7.05078Z"/>
  </g>
  <g transform="matrix(1 0 0 1 281.867 1933)">
   <path d="M11.709 2.91016Q13.75 2.91016 15.5518 2.12891Q17.3535 1.34766 18.7305-0.0292969Q20.1074-1.40625 20.8887-3.20801Q21.6699-5.00977 21.6699-7.05078Q21.6699-9.0918 20.8887-10.8936Q20.1074-12.6953 18.7305-14.0723Q17.3535-15.4492 15.5469-16.2305Q13.7402-17.0117 11.6992-17.0117Q9.6582-17.0117 7.85645-16.2305Q6.05469-15.4492 4.68262-14.0723Q3.31055-12.6953 2.5293-10.8936Q1.74805-9.0918 1.74805-7.05078Q1.74805-5.00977 2.5293-3.20801Q3.31055-1.40625 4.6875-0.0292969Q6.06445 1.34766 7.86621 2.12891Q9.66797 2.91016 11.709 2.91016ZM11.709 1.25Q9.98047 1.25 8.47656 0.605469Q6.97266-0.0390625 5.83496-1.17676Q4.69727-2.31445 4.05762-3.81836Q3.41797-5.32227 3.41797-7.05078Q3.41797-8.7793 4.05762-10.2832Q4.69727-11.7871 5.83008-12.9297Q6.96289-14.0723 8.4668-14.7119Q9.9707-15.3516 11.6992-15.3516Q13.4277-15.3516 14.9316-14.7119Q16.4355-14.0723 17.5781-12.9297Q18.7207-11.7871 19.3652-10.2832Q20.0098-8.7793 20.0098-7.05078Q20.0098-5.32227 19.3701-3.81836Q18.7305-2.31445 17.5928-1.17676Q16.4551-0.0390625 14.9463 0.605469Q13.4375 1.25 11.709 1.25ZM7.17773-7.05078Q7.17773-6.69922 7.41211-6.47461Q7.64648-6.25 8.01758-6.25L10.8887-6.25L10.8887-3.36914Q10.8887-2.99805 11.1133-2.76855Q11.3379-2.53906 11.6895-2.53906Q12.0605-2.53906 12.29-2.76855Q12.5195-2.99805 12.5195-3.36914L12.5195-6.25L15.4004-6.25Q15.7715-6.25 16.001-6.47461Q16.2305-6.69922 16.2305-7.05078Q16.2305-7.42188 16.001-7.65137Q15.7715-7.88086 15.4004-7.88086L12.5195-7.88086L12.5195-10.752Q12.5195-11.1328 12.29-11.3623Q12.0605-11.5918 11.6895-11.5918Q11.3379-11.5918 11.1133-11.3574Q10.8887-11.123 10.8887-10.752L10.8887-7.88086L8.01758-7.88086Q7.63672-7.88086 7.40723-7.65137Q7.17773-7.42188 7.17773-7.05078Z"/>
  </g>
  <g transform="matrix(1 0 0 1 305.646 1933)">
   <path d="M14.9707 5.66406Q17.0605 5.66406 18.96 5.01465Q20.8594 4.36523 22.4512 3.19336Q24.043 2.02148 25.2197 0.429688Q26.3965-1.16211 27.0459-3.06641Q27.6953-4.9707 27.6953-7.05078Q27.6953-9.14062 27.0459-11.04Q26.3965-12.9395 25.2197-14.5312Q24.043-16.123 22.4512-17.2998Q20.8594-18.4766 18.9551-19.126Q17.0508-19.7754 14.9609-19.7754Q12.8711-19.7754 10.9717-19.126Q9.07227-18.4766 7.48535-17.2998Q5.89844-16.123 4.72168-14.5312Q3.54492-12.9395 2.90039-11.04Q2.25586-9.14062 2.25586-7.05078Q2.25586-4.9707 2.90527-3.06641Q3.55469-1.16211 4.72656 0.429688Q5.89844 2.02148 7.49023 3.19336Q9.08203 4.36523 10.9814 5.01465Q12.8809 5.66406 14.9707 5.66406ZM14.9707 3.84766Q13.1641 3.84766 11.5283 3.2959Q9.89258 2.74414 8.53516 1.74805Q7.17773 0.751953 6.17676-0.610352Q5.17578-1.97266 4.62891-3.6084Q4.08203-5.24414 4.08203-7.05078Q4.08203-8.86719 4.62891-10.5029Q5.17578-12.1387 6.17188-13.501Q7.16797-14.8633 8.52539-15.8594Q9.88281-16.8555 11.5186-17.4023Q13.1543-17.9492 14.9609-17.9492Q16.7773-17.9492 18.4131-17.4023Q20.0488-16.8555 21.4111-15.8594Q22.7734-14.8633 23.7695-13.501Q24.7656-12.1387 25.3174-10.5029Q25.8691-8.86719 25.8691-7.05078Q25.8789-5.24414 25.332-3.6084Q24.7852-1.97266 23.7842-0.610352Q22.7832 0.751953 21.4209 1.74805Q20.0586 2.74414 18.4229 3.2959Q16.7871 3.84766 14.9707 3.84766ZM9.19922-7.05078Q9.19922-6.66992 9.45801-6.4209Q9.7168-6.17188 10.1172-6.17188L14.0625-6.17188L14.0625-2.2168Q14.0625-1.81641 14.3115-1.55762Q14.5605-1.29883 14.9512-1.29883Q15.3516-1.29883 15.6104-1.55273Q15.8691-1.80664 15.8691-2.2168L15.8691-6.17188L19.8242-6.17188Q20.2246-6.17188 20.4785-6.4209Q20.7324-6.66992 20.7324-7.05078Q20.7324-7.46094 20.4785-7.71484Q20.2246-7.96875 19.8242-7.96875L15.8691-7.96875L15.8691-11.9141Q15.8691-12.3242 15.6104-12.583Q15.3516-12.8418 14.9512-12.8418Q14.5605-12.8418 14.3115-12.583Q14.0625-12.3242 14.0625-11.9141L14.0625-7.96875L10.1172-7.96875Q9.70703-7.96875 9.45312-7.71484Q9.19922-7.46094 9.19922-7.05078Z"/>
  </g>
  <text style="stroke:none;fill:black;font-family:sans-serif;font-size:13;font-weight:bold;" transform="matrix(1 0 0 1 263 1953)">Design Variations</text>
  <text style="stroke:none;fill:black;font-family:sans-serif;font-size:13;" transform="matrix(1 0 0 1 263 1971)">Symbols are supported in up to nine weights and three scales.</text>
  <text style="stroke:none;fill:black;font-family:sans-serif;font-size:13;" transform="matrix(1 0 0 1 263 1989)">For optimal layout with text and other symbols, vertically align</text>
  <text style="stroke:none;fill:black;font-family:sans-serif;font-size:13;" transform="matrix(1 0 0 1 263 2007)">symbols with the adjacent text.</text>
  <line style="fill:none;stroke:#00AEEF;stroke-width:0.5;opacity:1.0;" x1="776" x2="776" y1="1919" y2="1933"/>
  <g transform="matrix(1 0 0 1 776 1933)">
   <path d="M3.31055 0.15625Q3.70117 0.15625 3.91602-0.00976562Q4.13086-0.175781 4.26758-0.585938L5.52734-4.0332L11.2891-4.0332L12.5488-0.585938Q12.6855-0.175781 12.9004-0.00976562Q13.1152 0.15625 13.4961 0.15625Q13.8867 0.15625 14.1162-0.0585938Q14.3457-0.273438 14.3457-0.644531Q14.3457-0.869141 14.2383-1.17188L9.6582-13.3691Q9.48242-13.8184 9.17969-14.043Q8.87695-14.2676 8.4082-14.2676Q7.5-14.2676 7.17773-13.3789L2.59766-1.16211Q2.49023-0.859375 2.49023-0.634766Q2.49023-0.263672 2.70996-0.0537109Q2.92969 0.15625 3.31055 0.15625ZM6.00586-5.51758L8.37891-12.0898L8.42773-12.0898L10.8008-5.51758Z"/>
  </g>
  <line style="fill:none;stroke:#00AEEF;stroke-width:0.5;opacity:1.0;" x1="793.197" x2="793.197" y1="1919" y2="1933"/>
  <text style="stroke:none;fill:black;font-family:sans-serif;font-size:13;font-weight:bold;" transform="matrix(1 0 0 1 776 1953)">Margins</text>
  <text style="stroke:none;fill:black;font-family:sans-serif;font-size:13;" transform="matrix(1 0 0 1 776 1971)">Leading and trailing margins on the left and right side of each symbol</text>
  <text style="stroke:none;fill:black;font-family:sans-serif;font-size:13;" transform="matrix(1 0 0 1 776 1989)">can be adjusted by modifying the x-location of the margin guidelines.</text>
  <text style="stroke:none;fill:black;font-family:sans-serif;font-size:13;" transform="matrix(1 0 0 1 776 2007)">Modifications are automatically applied proportionally to all</text>
  <text style="stroke:none;fill:black;font-family:sans-serif;font-size:13;" transform="matrix(1 0 0 1 776 2025)">scales and weights.</text>
  <g transform="matrix(1 0 0 1 1289 1933)">
   <path d="M2.8418 1.86523L4.54102 3.57422Q5.18555 4.22852 5.90332 4.17969Q6.62109 4.13086 7.31445 3.35938L18.0078-8.42773L17.041-9.4043L6.42578 2.27539Q6.16211 2.57812 5.89355 2.61719Q5.625 2.65625 5.27344 2.30469L4.10156 1.14258Q3.75 0.791016 3.79395 0.522461Q3.83789 0.253906 4.14062-0.0195312L15.6152-10.8203L14.6387-11.7871L3.04688-0.898438Q2.30469-0.214844 2.25098 0.498047Q2.19727 1.21094 2.8418 1.86523ZM9.25781-16.3281Q8.94531-16.0254 8.90625-15.6348Q8.86719-15.2441 9.04297-14.9512Q9.21875-14.6777 9.55566-14.541Q9.89258-14.4043 10.3809-14.5215Q11.4746-14.7754 12.5977-14.7314Q13.7207-14.6875 14.7949-13.9844L14.209-12.5293Q13.9551-11.9043 14.0674-11.4404Q14.1797-10.9766 14.5801-10.5664L16.875-8.25195Q17.2363-7.88086 17.5781-7.82227Q17.9199-7.76367 18.3398-7.8418L19.4043-8.03711L20.0684-7.36328L20.0293-6.80664Q20-6.43555 20.1221-6.12305Q20.2441-5.81055 20.6055-5.44922L21.3672-4.70703Q21.7285-4.3457 22.1533-4.33105Q22.5781-4.31641 22.9297-4.66797L25.8398-7.58789Q26.1914-7.93945 26.1816-8.35449Q26.1719-8.76953 25.8105-9.13086L25.0391-9.89258Q24.6875-10.2539 24.3799-10.3857Q24.0723-10.5176 23.7109-10.4883L23.1348-10.4395L22.4902-11.0742L22.7344-12.1973Q22.832-12.6172 22.6953-12.9834Q22.5586-13.3496 22.1191-13.7891L19.9219-15.9766Q18.6719-17.2168 17.2607-17.8369Q15.8496-18.457 14.4189-18.4814Q12.9883-18.5059 11.665-17.959Q10.3418-17.4121 9.25781-16.3281ZM10.752-15.957Q11.6602-16.6211 12.7002-16.9043Q13.7402-17.1875 14.8047-17.085Q15.8691-16.9824 16.8701-16.5137Q17.8711-16.0449 18.7012-15.2051L21.1328-12.793Q21.3086-12.6172 21.3525-12.4512Q21.3965-12.2852 21.3379-12.0312L21.0156-10.5469L22.5195-9.0625L23.5059-9.12109Q23.6914-9.13086 23.7891-9.09668Q23.8867-9.0625 24.0332-8.91602L24.6094-8.33984L22.168-5.89844L21.5918-6.47461Q21.4453-6.62109 21.4062-6.71875Q21.3672-6.81641 21.377-7.01172L21.4453-7.98828L19.9512-9.47266L18.4277-9.21875Q18.1836-9.16992 18.042-9.2041Q17.9004-9.23828 17.7148-9.41406L15.7129-11.416Q15.5176-11.5918 15.4932-11.7529Q15.4688-11.9141 15.5859-12.1875L16.4648-14.2773Q15.293-15.3711 13.8281-15.791Q12.3633-16.2109 10.8398-15.7617Q10.7227-15.7324 10.6885-15.8057Q10.6543-15.8789 10.752-15.957Z"/>
  </g>
  <text style="stroke:none;fill:black;font-family:sans-serif;font-size:13;font-weight:bold;" transform="matrix(1 0 0 1 1289 1953)">Exporting</text>
  <text style="stroke:none;fill:black;font-family:sans-serif;font-size:13;" transform="matrix(1 0 0 1 1289 1971)">Symbols should be outlined when exporting to ensure the</text>
  <text style="stroke:none;fill:black;font-family:sans-serif;font-size:13;" transform="matrix(1 0 0 1 1289 1989)">design is preserved when submitting to Xcode.</text>
  <text id="template-version" style="stroke:none;fill:black;font-family:sans-serif;font-size:13;text-anchor:end;" transform="matrix(1 0 0 1 3036 1933)">Template v.3.0</text>
  <text style="stroke:none;fill:black;font-family:sans-serif;font-size:13;text-anchor:end;" transform="matrix(1 0 0 1 3036 1951)">Requires Xcode 13 or greater</text>
  <text id="descriptive-name" style="stroke:none;fill:black;font-family:sans-serif;font-size:13;text-anchor:end;" transform="matrix(1 0 0 1 3036 1969)">Generated from globe</text>
  <text style="stroke:none;fill:black;font-family:sans-serif;font-size:13;text-anchor:end;" transform="matrix(1 0 0 1 3036 1987)">Typeset at 100 points</text>
  <text style="stroke:none;fill:black;font-family:sans-serif;font-size:13;" transform="matrix(1 0 0 1 263 726)">Small</text>
  <text style="stroke:none;fill:black;font-family:sans-serif;font-size:13;" transform="matrix(1 0 0 1 263 1156)">Medium</text>
  <text style="stroke:none;fill:black;font-family:sans-serif;font-size:13;" transform="matrix(1 0 0 1 263 1586)">Large</text>
 </g>
 <g id="Guides">
  <g id="H-reference" style="fill:#27AAE1;stroke:none;" transform="matrix(1 0 0 1 339 696)">
   <path d="M0.993347 0L3.6377 0L29.3282-67.1326L30.0301-67.1326L30.0301-70.459L28.1227-70.459ZM11.6882-24.4797L46.9818-24.4797L46.2311-26.7288L12.4382-26.7288ZM55.1193 0L57.7637 0L30.6381-70.459L29.4327-70.459L29.4327-67.1326Z"/>
  </g>
  <line id="Baseline-S" style="fill:none;stroke:#27AAE1;opacity:1;stroke-width:0.5;" x1="263" x2="3036" y1="696" y2="696"/>
  <line id="Capline-S" style="fill:none;stroke:#27AAE1;opacity:1;stroke-width:0.5;" x1="263" x2="3036" y1="625.541" y2="625.541"/>
  <g id="H-reference" style="fill:#27AAE1;stroke:none;" transform="matrix(1 0 0 1 339 1126)">
   <path d="M0.993347 0L3.6377 0L29.3282-67.1326L30.0301-67.1326L30.0301-70.459L28.1227-70.459ZM11.6882-24.4797L46.9818-24.4797L46.2311-26.7288L12.4382-26.7288ZM55.1193 0L57.7637 0L30.6381-70.459L29.4327-70.459L29.4327-67.1326Z"/>
  </g>
  <line id="Baseline-M" style="fill:none;stroke:#27AAE1;opacity:1;stroke-width:0.5;" x1="263" x2="3036" y1="1126" y2="1126"/>
  <line id="Capline-M" style="fill:none;stroke:#27AAE1;opacity:1;stroke-width:0.5;" x1="263" x2="3036" y1="1055.54" y2="1055.54"/>
  <g id="H-reference" style="fill:#27AAE1;stroke:none;" transform="matrix(1 0 0 1 339 1556)">
   <path d="M0.993347 0L3.6377 0L29.3282-67.1326L30.0301-67.1326L30.0301-70.459L28.1227-70.459ZM11.6882-24.4797L46.9818-24.4797L46.2311-26.7288L12.4382-26.7288ZM55.1193 0L57.7637 0L30.6381-70.459L29.4327-70.459L29.4327-67.1326Z"/>
  </g>
  <line id="Baseline-L" style="fill:none;stroke:#27AAE1;opacity:1;stroke-width:0.5;" x1="263" x2="3036" y1="1556" y2="1556"/>
  <line id="Capline-L" style="fill:none;stroke:#27AAE1;opacity:1;stroke-width:0.5;" x1="263" x2="3036" y1="1485.54" y2="1485.54"/>
  <line id="left-margin-Ultralight-S" style="fill:none;stroke:#00AEEF;stroke-width:0.5;opacity:1.0;" x1="515.649" x2="515.649" y1="600.785" y2="720.121"/>
  <line id="right-margin-Ultralight-S" style="fill:none;stroke:#00AEEF;stroke-width:0.5;opacity:1.0;" x1="603.773" x2="603.773" y1="600.785" y2="720.121"/>
  <line id="left-margin-Regular-S" style="fill:none;stroke:#00AEEF;stroke-width:0.5;opacity:1.0;" x1="1403.58" x2="1403.58" y1="600.785" y2="720.121"/>
  <line id="right-margin-Regular-S" style="fill:none;stroke:#00AEEF;stroke-width:0.5;opacity:1.0;" x1="1496.11" x2="1496.11" y1="600.785" y2="720.121"/>
  <line id="left-margin-Black-S" style="fill:none;stroke:#00AEEF;stroke-width:0.5;opacity:1.0;" x1="2884.57" x2="2884.57" y1="600.785" y2="720.121"/>
  <line id="right-margin-Black-S" style="fill:none;stroke:#00AEEF;stroke-width:0.5;opacity:1.0;" x1="2982.23" x2="2982.23" y1="600.785" y2="720.121"/>
 </g>
 <g id="Symbols">
  <g id="Black-S" transform="matrix(1 0 0 1 2884.57 696)">
   <path d="M48.8281-1.2207Q53.1738-1.2207 56.9092-3.85742Q60.6445-6.49414 63.501-11.1572Q66.3574-15.8203 67.9443-21.9727Q69.5312-28.125 69.5312-35.1562Q69.5312-42.2363 67.9443-48.4131Q66.3574-54.5898 63.501-59.2529Q60.6445-63.916 56.9092-66.5527Q53.1738-69.1895 48.8281-69.1895Q44.5312-69.1895 40.7715-66.5527Q37.0117-63.916 34.1553-59.2529Q31.2988-54.5898 29.7119-48.4131Q28.125-42.2363 28.125-35.1562Q28.125-28.125 29.7119-21.9727Q31.2988-15.8203 34.1553-11.1572Q37.0117-6.49414 40.7715-3.85742Q44.5312-1.2207 48.8281-1.2207ZM48.8281-62.5488Q51.416-62.5488 53.8574-60.2539Q56.2988-57.959 58.252-54.0527Q60.2051-50.1465 61.3525-45.2637Q62.5-40.3809 62.5-35.1562Q62.5-29.9805 61.3525-25.1221Q60.2051-20.2637 58.252-16.3574Q56.2988-12.4512 53.8574-10.1562Q51.416-7.86133 48.8281-7.86133Q46.2402-7.86133 43.7988-10.1318Q41.3574-12.4023 39.4043-16.3086Q37.4512-20.2148 36.3037-25.0977Q35.1562-29.9805 35.1562-35.1562Q35.1562-40.3809 36.3037-45.2637Q37.4512-50.1465 39.4043-54.0527Q41.3574-57.959 43.7988-60.2539Q46.2402-62.5488 48.8281-62.5488ZM45.3613-68.7012L45.3613-1.9043L52.2949-1.9043L52.2949-68.7012ZM48.8281-26.5625Q42.4316-26.5625 36.6455-25.6104Q30.8594-24.6582 26.416-22.9248Q21.9727-21.1914 19.5312-18.7988L24.7559-14.4043Q28.0762-16.7969 34.668-18.2129Q41.2598-19.6289 48.8281-19.6289Q56.3965-19.6289 63.0127-18.2129Q69.6289-16.7969 72.9004-14.4043L78.125-18.7988Q75.6836-21.1914 71.2402-22.9248Q66.7969-24.6582 61.0352-25.6104Q55.2734-26.5625 48.8281-26.5625ZM82.666-38.7207L14.9902-38.7207L14.9902-31.7871L82.666-31.7871ZM48.8281-43.75Q55.2734-43.75 61.0352-44.7021Q66.7969-45.6543 71.2402-47.4121Q75.6836-49.1699 78.125-51.5137L72.9004-55.9082Q69.6289-53.5156 63.0127-52.0996Q56.3965-50.6836 48.8281-50.6836Q41.3086-50.6836 34.7168-52.0996Q28.125-53.5156 24.7559-55.9082L19.5312-51.5137Q21.9727-49.1699 26.416-47.4121Q30.8594-45.6543 36.6455-44.7021Q42.4316-43.75 48.8281-43.75ZM48.8281 6.78711Q57.5195 6.78711 65.1123 3.51562Q72.7051 0.244141 78.4912-5.54199Q84.2773-11.3281 87.5488-18.9209Q90.8203-26.5137 90.8203-35.2051Q90.8203-43.8965 87.5488-51.4893Q84.2773-59.082 78.4912-64.8682Q72.7051-70.6543 65.1123-73.9258Q57.5195-77.1973 48.8281-77.1973Q40.1367-77.1973 32.5439-73.9258Q24.9512-70.6543 19.165-64.8682Q13.3789-59.082 10.1074-51.4893Q6.83594-43.8965 6.83594-35.2051Q6.83594-26.5137 10.1074-18.9209Q13.3789-11.3281 19.165-5.54199Q24.9512 0.244141 32.5439 3.51562Q40.1367 6.78711 48.8281 6.78711ZM48.8281-3.95508Q42.3828-3.95508 36.7188-6.39648Q31.0547-8.83789 26.7578-13.1348Q22.4609-17.4316 20.0195-23.0957Q17.5781-28.7598 17.5781-35.2051Q17.5781-41.6504 20.0195-47.3145Q22.4609-52.9785 26.7578-57.2754Q31.0547-61.5723 36.7188-64.0137Q42.3828-66.4551 48.8281-66.4551Q55.2734-66.4551 60.9375-64.0137Q66.6016-61.5723 70.8984-57.2754Q75.1953-52.9785 77.6367-47.3145Q80.0781-41.6504 80.0781-35.2051Q80.0781-28.7598 77.6367-23.0957Q75.1953-17.4316 70.8984-13.1348Q66.6016-8.83789 60.9375-6.39648Q55.2734-3.95508 48.8281-3.95508Z"/>
  </g>
  <g id="Regular-S" transform="matrix(1 0 0 1 1403.58 696)">
   <path d="M46.2402 1.66016Q50.3418 1.66016 53.9062-1.14746Q57.4707-3.95508 60.1318-8.95996Q62.793-13.9648 64.3066-20.6787Q65.8203-27.3926 65.8203-35.1562Q65.8203-42.9688 64.3311-49.707Q62.8418-56.4453 60.1562-61.4746Q57.4707-66.5039 53.9307-69.3359Q50.3906-72.168 46.2402-72.168Q42.1387-72.168 38.5742-69.3359Q35.0098-66.5039 32.3486-61.4746Q29.6875-56.4453 28.1982-49.707Q26.709-42.9688 26.709-35.1562Q26.709-27.3926 28.1982-20.6787Q29.6875-13.9648 32.373-8.95996Q35.0586-3.95508 38.5986-1.14746Q42.1387 1.66016 46.2402 1.66016ZM46.2402-66.8457Q48.9746-66.8457 51.4648-64.3066Q53.9551-61.7676 55.8838-57.3242Q57.8125-52.8809 58.9355-47.1924Q60.0586-41.5039 60.0586-35.1562Q60.0586-28.9062 58.9355-23.2422Q57.8125-17.5781 55.8838-13.1592Q53.9551-8.74023 51.4648-6.20117Q48.9746-3.66211 46.2402-3.66211Q43.5547-3.66211 41.0645-6.20117Q38.5742-8.74023 36.6455-13.1592Q34.7168-17.5781 33.5938-23.2422Q32.4707-28.9062 32.4707-35.1562Q32.4707-41.5039 33.5938-47.1924Q34.7168-52.8809 36.6455-57.3242Q38.5742-61.7676 41.0645-64.3066Q43.5547-66.8457 46.2402-66.8457ZM43.4082-71.6309L43.4082 0.927734L49.0723 0.927734L49.0723-71.6309ZM46.2402-21.4355Q40.332-21.4355 34.9609-20.4346Q29.5898-19.4336 25.3418-17.5537Q21.0938-15.6738 18.4082-13.1348L22.7539-9.57031Q26.5137-12.5977 32.5195-14.1846Q38.5254-15.7715 46.2402-15.7715Q54.0039-15.7715 60.0098-14.1846Q66.0156-12.5977 69.7754-9.57031L74.1211-13.1348Q71.4355-15.6738 67.1631-17.5537Q62.8906-19.4336 57.5439-20.4346Q52.1973-21.4355 46.2402-21.4355ZM81.3965-38.0859L11.084-38.0859L11.084-32.4219L81.3965-32.4219ZM46.2402-48.877Q52.1973-48.877 57.5439-49.8779Q62.8906-50.8789 67.1631-52.7588Q71.4355-54.6387 74.1211-57.1777L69.7754-60.7422Q66.0156-57.7148 60.0098-56.1279Q54.0039-54.541 46.2402-54.541Q38.5254-54.541 32.5195-56.1279Q26.5137-57.7148 22.7539-60.7422L18.4082-57.1777Q21.0938-54.6387 25.3418-52.7588Q29.5898-50.8789 34.9609-49.8779Q40.332-48.877 46.2402-48.877ZM46.2402 4.15039Q54.3457 4.15039 61.4746 1.07422Q68.6035-2.00195 74.0479-7.4707Q79.4922-12.9395 82.5928-20.0684Q85.6934-27.1973 85.6934-35.2539Q85.6934-43.3105 82.5928-50.4395Q79.4922-57.5684 74.0234-63.0371Q68.5547-68.5059 61.4258-71.582Q54.2969-74.6582 46.1914-74.6582Q38.1348-74.6582 31.0059-71.582Q23.877-68.5059 18.457-63.0371Q13.0371-57.5684 9.93652-50.4395Q6.83594-43.3105 6.83594-35.2539Q6.83594-27.1973 9.93652-20.0684Q13.0371-12.9395 18.4814-7.4707Q23.9258-2.00195 31.0547 1.07422Q38.1836 4.15039 46.2402 4.15039ZM46.2402-1.70898Q39.4043-1.70898 33.3496-4.3457Q27.2949-6.98242 22.6562-11.6211Q18.0176-16.2598 15.3809-22.3389Q12.7441-28.418 12.7441-35.2539Q12.7441-42.0898 15.3564-48.1689Q17.9688-54.248 22.6074-58.8867Q27.2461-63.5254 33.3008-66.1621Q39.3555-68.7988 46.1914-68.7988Q53.0762-68.7988 59.1309-66.1621Q65.1855-63.5254 69.8486-58.8867Q74.5117-54.248 77.1484-48.1689Q79.7852-42.0898 79.7852-35.2539Q79.7852-28.418 77.1484-22.3389Q74.5117-16.2598 69.873-11.6211Q65.2344-6.98242 59.1797-4.3457Q53.125-1.70898 46.2402-1.70898Z"/>
  </g>
  <g id="Ultralight-S" transform="matrix(1 0 0 1 515.649 696)">
   <path d="M44.0605 1.56937Q47.5716 1.56937 50.8183-0.988388Q54.0649-3.54614 56.6578-8.34694Q59.2506-13.1477 60.7643-19.9295Q62.278-26.7113 62.278-35.1562Q62.278-43.6043 60.7662-50.388Q59.2545-57.1716 56.6597-61.974Q54.0649-66.7763 50.8202-69.3359Q47.5754-71.8956 44.0605-71.8956Q40.5495-71.8956 37.3028-69.3359Q34.0561-66.7763 31.4632-61.974Q28.8704-57.1716 27.3582-50.388Q25.8461-43.6043 25.8461-35.1562Q25.8461-26.7113 27.3582-19.9295Q28.8704-13.1477 31.4651-8.34694Q34.0599-3.54614 37.3047-0.988388Q40.5495 1.56937 44.0605 1.56937ZM44.0605-70.1607Q47.2488-70.1607 50.1251-67.4854Q53.0014-64.8102 55.2479-60.0262Q57.4944-55.2422 58.7765-48.8953Q60.0586-42.5484 60.0586-35.1562Q60.0586-28.1342 58.7765-21.8346Q57.4944-15.535 55.2479-10.6617Q53.0014-5.78842 50.1251-2.97699Q47.2488-0.165558 44.0605-0.165558Q40.8752-0.165558 37.9765-2.97699Q35.0777-5.78842 32.8537-10.6617Q30.6297-15.535 29.348-21.8346Q28.0663-28.1342 28.0663-35.1562Q28.0663-42.5484 29.348-48.8953Q30.6297-55.2422 32.8537-60.0262Q35.0777-64.8102 37.9765-67.4854Q40.8752-70.1607 44.0605-70.1607ZM42.9993-71.3127L42.9993 0.791168L45.1218 0.791168L45.1218-71.3127ZM44.0605-18.3479Q38.4247-18.3479 33.4167-17.4831Q28.4088-16.6183 24.4106-15.0562Q20.4124-13.4941 17.7269-11.4548L19.3031-10.1151Q23.3803-13.0066 29.636-14.5935Q35.8917-16.1804 44.0605-16.1804Q52.2331-16.1804 58.4885-14.5935Q64.7438-13.0066 68.8217-10.1151L70.3972-11.4548Q67.7116-13.4941 63.689-15.0562Q59.6664-16.6183 54.6829-17.4831Q49.6994-18.3479 44.0605-18.3479ZM80.0339-36.3152L8.08716-36.3152L8.08716-34.1927L80.0339-34.1927ZM44.0605-51.9646Q49.6994-51.9646 54.6829-52.8294Q59.6664-53.6942 63.689-55.2563Q67.7116-56.8184 70.3972-58.8577L68.8217-60.1974Q64.7438-57.3059 58.4885-55.719Q52.2331-54.1321 44.0605-54.1321Q35.8917-54.1321 29.636-55.719Q23.3803-57.3059 19.3031-60.1974L17.7269-58.8577Q20.4124-56.8184 24.4106-55.2563Q28.4088-53.6942 33.4167-52.8294Q38.4247-51.9646 44.0605-51.9646ZM44.0605 1.97067Q51.757 1.97067 58.4774-0.92392Q65.1978-3.81851 70.3468-8.9695Q75.4959-14.1205 78.3924-20.8405Q81.2889-27.5604 81.2889-35.2539Q81.2889-42.9474 78.3924-49.6674Q75.4959-56.3873 70.3453-61.5383Q65.1947-66.6893 58.4743-69.5839Q51.754-72.4785 44.0575-72.4785Q36.364-72.4785 29.6211-69.5839Q22.8783-66.6893 17.7532-61.5383Q12.6282-56.3873 9.73206-49.6674Q6.83594-42.9474 6.83594-35.2539Q6.83594-27.5604 9.73206-20.8405Q12.6282-14.1205 17.7547-8.9695Q22.8813-3.81851 29.6242-0.92392Q36.367 1.97067 44.0605 1.97067ZM44.0605-0.164795Q36.8156-0.164795 30.4661-2.8923Q24.1165-5.61981 19.2734-10.463Q14.4302-15.3061 11.7027-21.6576Q8.97522-28.009 8.97522-35.2539Q8.97522-42.4988 11.7008-48.8503Q14.4264-55.2017 19.2696-60.0449Q24.1127-64.888 30.4626-67.6155Q36.8126-70.343 44.0575-70.343Q51.3054-70.343 57.655-67.6155Q64.0045-64.888 68.8496-60.0449Q73.6946-55.2017 76.4221-48.8503Q79.1496-42.4988 79.1496-35.2539Q79.1496-28.009 76.4221-21.6576Q73.6946-15.3061 68.8515-10.463Q64.0083-5.61981 57.6584-2.8923Q51.3084-0.164795 44.0605-0.164795Z"/>
  </g>
 </g>
</svg>
